<?xml version="1.0" standalone="no"?>
<!DOCTYPE svg PUBLIC "-//W3C//DTD SVG 1.1//EN" "http://www.w3.org/Graphics/SVG/1.1/DTD/svg11.dtd" >
<svg xmlns="http://www.w3.org/2000/svg" xmlns:xlink="http://www.w3.org/1999/xlink" version="1.1">
<metadata>
Created by FontForge 20141024 at Wed Nov  5 22:25:48 2014
 By Jimmy Warting
(c) 1992, Tilde Ltd. AG Fonts Collection. Created by Andrejs Grinbergs.
</metadata>
<defs>
<font id="AGFuturaBold" horiz-adv-x="2810" >
  <font-face 
    font-family="AG_Futura"
    font-weight="700"
    font-stretch="normal"
    units-per-em="4096"
    panose-1="2 11 -30 0 0 0 0 0 0 0"
    ascent="3276"
    descent="-820"
    x-height="2101"
    cap-height="3088"
    bbox="-311 -1049 5902 4264"
    underline-thickness="20"
    underline-position="-123"
    unicode-range="U+0020-2122"
  />
<missing-glyph horiz-adv-x="3072" 
d="M512 0v2560h2048v-2560h-2048zM2494 66v2428h-1916v-2428h1916z" />
    <glyph glyph-name=".notdef" horiz-adv-x="3072" 
d="M512 0v2560h2048v-2560h-2048zM2494 66v2428h-1916v-2428h1916z" />
    <glyph glyph-name=".null" horiz-adv-x="0" 
 />
    <glyph glyph-name="nonmarkingreturn" horiz-adv-x="0" 
 />
    <glyph glyph-name="space" unicode=" " horiz-adv-x="2048" 
 />
    <glyph glyph-name="exclam" unicode="!" horiz-adv-x="1573" 
d="M786 877q132 0 242 -64t174 -174t64 -242q0 -130 -64 -240t-175.5 -174.5t-240.5 -64.5t-240 64.5t-175 174.5t-64 240q0 132 64 242t173.5 174t241.5 64zM401 1049v2039h775v-2039h-775z" />
    <glyph glyph-name="quotedbl" unicode="&#x22;" horiz-adv-x="2048" 
d="M193 3088h696l-111 -1355h-475zM1159 3088h696l-110 -1355h-475z" />
    <glyph glyph-name="numbersign" unicode="#" 
d="M1085 2974h435l-160 -832h414l159 832h430l-159 -832h327v-463h-401l-98 -508h385v-462h-484l-135 -709h-434l135 709h-414l-135 -709h-434l135 709h-372v462h462l99 508h-394v463h480zM1274 1679l-98 -508h417l107 508h-426z" />
    <glyph glyph-name="dollar" unicode="$" 
d="M279 356l335 619q157 -145 357.5 -244.5t384.5 -99.5q144 0 264.5 79.5t120.5 219.5q0 104 -83 167t-221 109.5t-339 112.5q-193 73 -329.5 163.5t-225 249t-88.5 390.5q0 242 105.5 457.5t297 352t432.5 152.5v496h381v-496q442 -41 746 -237l-303 -594
q-250 201 -525 201q-149 0 -248.5 -57t-99.5 -173q0 -121 107.5 -187.5t293.5 -131.5q292 -98 473 -194t298.5 -266.5t117.5 -436.5q0 -279 -101.5 -479.5t-294 -327.5t-464.5 -193v-512h-381v488q-262 0 -528 102q-331 127 -483 270z" />
    <glyph glyph-name="percent" unicode="%" horiz-adv-x="3994" 
d="M922 3129q233 0 425 -86.5t305 -256t113 -406.5q0 -242 -110.5 -414.5t-302 -260t-430.5 -87.5q-238 0 -430.5 87.5t-303 260t-110.5 414.5q0 237 113 406.5t304.5 256t426.5 86.5zM922 2720q-95 0 -175 -47t-127 -126.5t-47 -174.5q0 -144 102 -244t247 -100
q94 0 174.5 46t127 124t46.5 174q0 95 -47 174.5t-126.5 126.5t-174.5 47zM2691 3088h401l-1794 -3088h-401zM3072 1470q235 0 426.5 -86.5t304.5 -256t113 -406.5q0 -242 -110.5 -414.5t-303 -260t-430.5 -87.5t-430.5 87.5t-303 260t-110.5 414.5q0 237 113 406.5
t304.5 256t426.5 86.5zM3072 1061q-95 0 -175 -47t-126.5 -126.5t-46.5 -174.5q0 -144 102 -244t246 -100q94 0 174.5 46t127 124t46.5 174q0 95 -46.5 174.5t-126.5 126.5t-175 47z" />
    <glyph glyph-name="ampersand" unicode="&#x26;" horiz-adv-x="3473" 
d="M1765 766l-487 524q-131 -83 -211 -168t-80 -200q0 -88 51 -152t132 -97.5t165 -33.5q212 0 430 127zM1610 1962q121 68 203.5 164.5t82.5 212.5q0 120 -75 203.5t-195 83.5q-108 0 -183 -71.5t-75 -182.5q0 -99 57 -181.5t185 -228.5zM2470 0l-266 287
q-544 -369 -1057 -369q-271 0 -497.5 105.5t-360 306t-133.5 473.5q0 324 169 520t494 340l74 33l-66 90q-76 103 -116.5 166.5t-72.5 159.5t-32 210q0 256 133.5 449.5t354 296t471.5 102.5q249 0 471.5 -101.5t358.5 -292.5t136 -445q0 -267 -148.5 -435.5t-424.5 -306.5
l389 -409q262 233 406 438l454 -434l-389 -418l-37 -37l692 -729h-1003z" />
    <glyph glyph-name="quotesingle" unicode="'" horiz-adv-x="1024" 
d="M164 3088h696l-110 -1355h-476z" />
    <glyph glyph-name="parenleft" unicode="(" horiz-adv-x="1442" 
d="M795 3236l446 -254q-162 -260 -267.5 -569.5t-154.5 -638t-49 -652.5q0 -303 51 -639.5t158 -657t262 -554.5l-446 -254q-156 205 -268.5 462.5t-185 549t-106.5 580.5t-34 562q0 538 154 1105.5t440 959.5z" />
    <glyph glyph-name="parenright" unicode=")" horiz-adv-x="1442" 
d="M201 2982l446 254q288 -396 441 -961.5t153 -1103.5q0 -273 -33.5 -561.5t-105 -576t-185 -549t-270.5 -467.5l-446 254q155 234 261.5 552t158 657t51.5 642q0 324 -49 652.5t-154.5 638t-267.5 569.5z" />
    <glyph glyph-name="asterisk" unicode="*" horiz-adv-x="1978" 
d="M803 3088h368l-20 -438l365 229l184 -311l-389 -205l385 -213l-185 -307l-360 234l16 -414h-368l24 410l-348 -222l-184 312l368 204l-380 209l188 312l356 -226z" />
    <glyph glyph-name="plus" unicode="+" 
d="M1098 1360v741h614v-741h742v-615h-742v-745h-614v745h-742v615h742z" />
    <glyph glyph-name="comma" unicode="," horiz-adv-x="1405" 
d="M623 782h700l-754 -1360h-479z" />
    <glyph glyph-name="hyphen" unicode="-" horiz-adv-x="1606" 
d="M217 1622h1172v-614h-1172v614z" />
    <glyph glyph-name="period" unicode="." horiz-adv-x="1405" 
d="M705 877q132 0 241.5 -64t173.5 -174t64 -242q0 -130 -64 -240t-175 -174.5t-240 -64.5t-240.5 64.5t-175.5 174.5t-64 240q0 202 140 341t340 139z" />
    <glyph glyph-name="slash" unicode="/" horiz-adv-x="2372" 
d="M1675 3400h586l-1565 -3781h-585z" />
    <glyph glyph-name="zero" unicode="0" 
d="M1405 3211q434 0 730.5 -240t438.5 -621t142 -806q0 -424 -141 -806t-437 -621.5t-733 -239.5t-733 239.5t-437 621.5t-141 806q0 425 142.5 807t438 621t730.5 239zM1405 2503q-189 0 -304 -163.5t-161.5 -385t-46.5 -406.5t46.5 -408.5t161.5 -388.5t304 -165t304 165
t161.5 388.5t46.5 408.5q0 325 -119.5 640t-392.5 315z" />
    <glyph glyph-name="one" unicode="1" 
d="M1102 2408h-443v680h1246v-3088h-803v2408z" />
    <glyph glyph-name="two" unicode="2" 
d="M1606 680h1011v-680h-2482l1262 1372q352 385 352 758q0 156 -99 278.5t-253 122.5q-157 0 -246.5 -107t-89.5 -270q0 -63 12 -131h-885q12 349 161 621t418.5 419.5t625.5 147.5q246 0 462 -77t380 -221.5t257 -348.5t93 -450q0 -314 -120.5 -533t-379.5 -455z" />
    <glyph glyph-name="three" unicode="3" 
d="M1044 2200h-745q47 464 360 745q298 266 787 266q279 0 504 -105t354 -309t129 -483q0 -199 -81.5 -371.5t-242.5 -263.5q157 -42 271 -164.5t173.5 -286.5t59.5 -327q0 -246 -97 -438t-267 -323.5t-386 -197t-450 -65.5q-580 0 -921 348q-148 153 -250.5 369t-102.5 410
h819q0 -187 121 -313t310 -126q121 0 220 51.5t154.5 145t55.5 217.5q0 114 -59 209t-157.5 150t-209.5 55q-46 0 -140 -25v537h82q157 0 255 92t98 248q0 139 -90 225t-226 86q-149 0 -238.5 -101t-89.5 -255z" />
    <glyph glyph-name="four" unicode="4" 
d="M2310 1253h373v-614h-373v-639h-745v639h-1499v512l1191 1937h1053v-1835zM1565 1253v1188h-9l-720 -1188h729z" />
    <glyph glyph-name="five" unicode="5" horiz-adv-x="2822" 
d="M2314 2408h-1069l-53 -352l254 21q29 4 82 4q287 0 519 -148.5t362.5 -405t130.5 -556.5q0 -244 -103 -460.5t-295 -375.5q-324 -258 -901 -258q-576 0 -1008 279l119 757q398 -356 860 -356q198 0 345 128.5t147 326.5q0 175 -98 295t-253 176.5t-325 56.5
q-317 0 -590 -127l271 1675h1605v-680z" />
    <glyph glyph-name="six" unicode="6" 
d="M1253 3088h910l-877 -1044l8 -8q216 94 430 94q294 0 520 -150.5t349 -400t123 -535.5q0 -274 -105 -493.5t-290 -369t-426 -227t-506 -77.5q-238 0 -475 66.5t-406 199.5q-187 156 -300.5 384.5t-113.5 463.5q0 580 496 1229zM1384 508q138 0 252 68.5t179 186t65 257.5
q0 138 -65 253.5t-179.5 183t-251.5 67.5q-135 0 -252.5 -68t-186 -183.5t-68.5 -252.5q0 -211 148.5 -361.5t358.5 -150.5z" />
    <glyph glyph-name="seven" unicode="7" 
d="M1581 2408h-1290v680h2535l-1773 -3088h-881z" />
    <glyph glyph-name="eight" unicode="8" 
d="M1405 2654q-93 0 -171 -46.5t-123.5 -127t-45.5 -174.5q0 -144 99.5 -246t240.5 -102t240.5 102t99.5 246q0 145 -99.5 246.5t-240.5 101.5zM1405 1298q-154 0 -261.5 -112t-107.5 -273q0 -156 107.5 -266t261.5 -110t261.5 110t107.5 266q0 161 -107.5 273t-261.5 112z
M1405 3211q273 0 514.5 -100t390 -300t148.5 -480q0 -244 -136 -436.5t-352 -264.5v-8q283 -93 449 -303t166 -508q0 -300 -176.5 -512.5t-450.5 -317t-553 -104.5q-280 0 -554 105t-450 317t-176 512q0 199 75.5 360t214.5 275t325 176v8q-215 72 -351.5 264.5
t-136.5 436.5q0 280 148.5 480t390 300t514.5 100z" />
    <glyph glyph-name="nine" unicode="9" 
d="M1561 0h-914l881 1040l-8 9q-215 -95 -435 -95q-218 0 -404 88t-317.5 242t-200.5 350t-69 410q0 275 105.5 495.5t289 369.5t423 225.5t509.5 76.5q246 0 479.5 -64.5t401.5 -201.5q190 -152 302 -381.5t112 -470.5q0 -571 -496 -1229zM1425 2576q-211 0 -353 -146.5
t-142 -361.5q0 -214 142 -360.5t353 -146.5q138 0 256.5 68t187 184.5t68.5 254.5q0 139 -68.5 255.5t-187 184.5t-256.5 68z" />
    <glyph glyph-name="colon" unicode=":" horiz-adv-x="1405" 
d="M705 877q132 0 241.5 -64t173.5 -174t64 -242q0 -130 -64 -240t-175 -174.5t-240 -64.5t-240.5 64.5t-175.5 174.5t-64 240q0 202 140 341t340 139zM705 2257q132 0 241.5 -64t173.5 -173.5t64 -241.5q0 -198 -140 -339t-339 -141q-198 0 -339 141t-141 339
q0 201 140 340t340 139z" />
    <glyph glyph-name="semicolon" unicode=";" horiz-adv-x="1405" 
d="M565 782h701l-754 -1360h-479zM893 2257q132 0 241.5 -64t173.5 -173.5t64 -241.5q0 -198 -140 -339t-339 -141t-339 141t-140 339q0 132 64 241.5t173.5 173.5t241.5 64z" />
    <glyph glyph-name="less" unicode="&#x3c;" 
d="M406 807v491l2002 746v-614l-1122 -373v-8l1122 -373v-615z" />
    <glyph glyph-name="equal" unicode="=" 
d="M356 1851h2098v-614h-2098v614zM356 868h2098v-614h-2098v614z" />
    <glyph glyph-name="greater" unicode="&#x3e;" 
d="M2408 1298v-491l-2002 -746v615l1122 373v8l-1122 373v614z" />
    <glyph glyph-name="question" unicode="?" horiz-adv-x="2437" 
d="M762 1032v795q100 -21 172 -21q198 0 363 109.5t165 296.5q0 128 -85.5 217.5t-213.5 89.5q-91 0 -156 -40.5t-97.5 -111.5t-32.5 -159h-816q3 300 159 518t412 331t552 113q420 0 717 -254q158 -133 255 -322.5t97 -385.5q0 -221 -96 -398.5t-265 -299t-381 -187.5v-291
h-749zM1151 877q132 0 241.5 -64t173.5 -174t64 -242q0 -130 -64 -240t-175 -174.5t-240 -64.5t-240 64.5t-175 174.5t-64 240q0 132 64 242t173.5 174t241.5 64z" />
    <glyph glyph-name="at" unicode="@" horiz-adv-x="3031" 
d="M1147 1450q0 -103 36.5 -188.5t107 -137t167.5 -51.5q173 0 268.5 135t116.5 316q0 194 -78.5 295.5t-216.5 101.5q-169 0 -285 -147t-116 -324zM2425 2335l-205 -1065q-29 -118 -29 -176q0 -95 78 -95q75 9 166.5 115t158.5 266.5t77 331.5q0 346 -144.5 588.5
t-394 363.5t-559.5 121q-253 0 -469.5 -91.5t-373.5 -261t-240.5 -395.5t-83.5 -493q0 -370 161.5 -652.5t443 -435.5t631.5 -153q234 0 430 48t304 116l336 -270q-541 -279 -1102 -279q-435 0 -800 210.5t-577.5 584t-212.5 831.5q0 454 208 827t568 586t789 213
q571 0 963 -356q458 -405 458 -959q0 -257 -65.5 -483.5t-187.5 -388.5q-139 -185 -305 -272.5t-326 -87.5q-85 3 -156.5 69.5t-97.5 167.5q-206 -237 -525 -237q-179 0 -337.5 102.5t-254.5 277.5t-96 381q0 254 105 482t296 367t435 139q326 0 504 -254l41 217h389z" />
    <glyph glyph-name="A" unicode="A" horiz-adv-x="3199" 
d="M2154 537h-1105l-213 -537h-852l1187 3088h877l1163 -3088h-856zM1937 1151l-327 983h-8l-332 -983h667z" />
    <glyph glyph-name="B" unicode="B" horiz-adv-x="2773" 
d="M1065 1278v-664h102q296 0 467.5 59.5t171.5 268.5t-141 272.5t-379 63.5h-139h-82zM1499 0h-1237v3088h1147q918 0 918 -802q0 -458 -340 -631v-8q322 -42 476 -247.5t154 -539.5q0 -449 -319.5 -654.5t-798.5 -205.5zM1065 2474v-598h90q197 0 315.5 60.5t118.5 238.5
q0 188 -125.5 243.5t-341.5 55.5h-57z" />
    <glyph glyph-name="C" unicode="C" horiz-adv-x="2703" 
d="M2470 3015v-963q-121 164 -308.5 252t-396.5 88q-239 0 -427.5 -113.5t-292 -310t-103.5 -432.5q0 -242 105 -433.5t295.5 -299t435.5 -107.5q195 0 379.5 88t312.5 240v-963q-268 -81 -406.5 -112t-302.5 -31q-321 0 -619 118t-540 337q-496 448 -496 1167
q0 318 117.5 610.5t337.5 520.5q153 156 344 268t404.5 171.5t427.5 59.5q357 0 733 -155z" />
    <glyph glyph-name="D" unicode="D" horiz-adv-x="3080" 
d="M262 0v3088h1139q319 0 606 -118t503 -328t338 -493.5t122 -604.5q0 -423 -212.5 -778.5t-574 -560.5t-782.5 -205h-1139zM1065 2408v-1728h180q247 0 449 93t321 288t119 483q0 408 -243 636t-638 228h-188z" />
    <glyph glyph-name="E" unicode="E" horiz-adv-x="2253" 
d="M2019 2408h-954v-516h905v-680h-905v-532h954v-680h-1757v3088h1757v-680z" />
    <glyph glyph-name="F" unicode="F" horiz-adv-x="2220" 
d="M2036 2408h-971v-516h881v-680h-881v-1212h-803v3088h1774v-680z" />
    <glyph glyph-name="G" unicode="G" horiz-adv-x="3449" 
d="M1749 1724h1593q-5 -270 -27.5 -460.5t-91 -385t-196.5 -374.5q-435 -606 -1274 -606q-477 0 -854 205t-585 577t-208 848q0 370 120 678t344.5 529.5t532.5 338.5t679 117q317 0 585 -96.5t472.5 -290t334.5 -477.5l-761 -320q-84 227 -257.5 359.5t-410.5 132.5
q-250 0 -433 -140.5t-276.5 -365.5t-93.5 -469q0 -246 96 -468.5t282 -360.5t437 -138q175 0 317 61t228 181t102 295h-655v630z" />
    <glyph glyph-name="H" unicode="H" horiz-adv-x="3289" 
d="M1065 1896h1159v1192h803v-3088h-803v1266h-1159v-1266h-803v3088h803v-1192z" />
    <glyph glyph-name="I" unicode="I" horiz-adv-x="1327" 
d="M1065 3088v-3088h-803v3088h803z" />
    <glyph glyph-name="J" unicode="J" horiz-adv-x="2003" 
d="M954 3088h803v-2084q0 -247 -63.5 -445.5t-192.5 -342.5t-322 -221t-446 -77q-498 0 -794 455l462 487q194 -262 324 -262q150 0 189.5 127.5t39.5 327.5v2035z" />
    <glyph glyph-name="K" unicode="K" horiz-adv-x="3105" 
d="M1073 1815l971 1273h995l-1229 -1462l1340 -1626h-1041l-1036 1339h-8v-1339h-803v3088h803v-1273h8z" />
    <glyph glyph-name="L" unicode="L" horiz-adv-x="2028" 
d="M1065 3088v-2408h963v-680h-1766v3088h803z" />
    <glyph glyph-name="M" unicode="M" horiz-adv-x="4026" 
d="M78 0l524 3088h791l626 -1650l664 1650h799l467 -3088h-803l-226 1778h-8l-741 -1778h-320l-708 1778h-8l-258 -1778h-799z" />
    <glyph glyph-name="N" unicode="N" horiz-adv-x="3609" 
d="M262 0v3088h803l1470 -1888h9v1888h802v-3088h-802l-1471 1892h-8v-1892h-803z" />
    <glyph glyph-name="O" unicode="O" horiz-adv-x="3633" 
d="M1815 3191q332 0 641 -116.5t549.5 -331t379 -507t138.5 -634.5q0 -367 -125.5 -682.5t-356.5 -545t-544.5 -353t-681.5 -123.5t-681 123.5t-545.5 354.5t-357.5 545t-125 681q0 342 138.5 634.5t379 507t550.5 331t641 116.5zM1815 2413q-233 0 -434.5 -114t-320 -302.5
t-118.5 -399.5q0 -261 117.5 -472t318 -330t437.5 -119q238 0 438 119.5t317 330t117 471.5q0 211 -118 399.5t-319 302.5t-435 114z" />
    <glyph glyph-name="P" unicode="P" horiz-adv-x="2707" 
d="M262 0v3088h1229q339 0 591.5 -108.5t391.5 -336.5t139 -570q0 -272 -71.5 -470t-211 -326t-342.5 -190.5t-468 -62.5h-455v-1024h-803zM1065 2441v-770h135q193 0 308 19t192.5 101t77.5 257q0 183 -74.5 268t-188 105t-315.5 20h-135z" />
    <glyph glyph-name="Q" unicode="Q" horiz-adv-x="3633" 
d="M2327 1303l217 -226q143 199 143 455q0 229 -116 432t-316.5 326t-435.5 123q-234 0 -436 -114t-321.5 -303t-119.5 -399q0 -194 68 -363.5t189 -294.5t281 -194t339 -69q129 0 245 41l-495 491zM3645 -78l-737 -115l-246 291q-331 -200 -847 -200q-368 0 -681 123.5
t-545.5 354.5t-357.5 545t-125 681q0 342 138.5 634.5t379 507t550.5 331t641 116.5q359 0 671 -116.5t546 -335.5t362.5 -525.5t128.5 -677.5q0 -593 -398 -1085z" />
    <glyph glyph-name="R" unicode="R" horiz-adv-x="2785" 
d="M1860 1266l970 -1266h-999l-758 1188h-8v-1188h-803v3088h1200q313 0 555.5 -102t380 -316.5t137.5 -531.5q0 -216 -78.5 -401t-230 -308.5t-366.5 -162.5zM1065 2474v-770h78q157 0 277.5 29t200 114.5t79.5 241.5t-79.5 241.5t-199.5 114.5t-278 29h-78z" />
    <glyph glyph-name="S" unicode="S" horiz-adv-x="2523" 
d="M2277 2916l-319 -622q-247 205 -533 205q-126 0 -235 -69t-109 -189q0 -119 97 -180t260 -115l204 -62q361 -105 561.5 -300.5t200.5 -543.5q0 -560 -319 -831q-344 -291 -877 -291q-583 0 -1085 352l344 648q363 -320 713 -320q155 0 272 79.5t117 231.5
q0 147 -133 217.5t-355 135.5q-291 82 -464.5 169t-272 253t-98.5 450q0 308 136 543.5t379 364t550 128.5q237 0 499 -68.5t467 -185.5z" />
    <glyph glyph-name="T" unicode="T" horiz-adv-x="2183" 
d="M1491 2408v-2408h-803v2408h-663v680h2129v-680h-663z" />
    <glyph glyph-name="U" unicode="U" horiz-adv-x="3187" 
d="M2138 3088h803v-1736q0 -244 -19 -424t-90.5 -353.5t-214.5 -312.5q-126 -123 -293 -199t-354 -110.5t-377 -34.5q-295 0 -568.5 82.5t-455.5 261.5q-143 139 -214 311.5t-90 353.5t-19 425v1736h803v-1626q0 -254 32.5 -429t152 -292.5t359.5 -117.5t360 117.5
t152.5 292.5t32.5 429v1626z" />
    <glyph glyph-name="V" unicode="V" horiz-adv-x="3117" 
d="M811 3088l745 -1876l750 1876h872l-1318 -3088h-623l-1298 3088h872z" />
    <glyph glyph-name="W" unicode="W" horiz-adv-x="4575" 
d="M774 3088l537 -1994h8l647 1994h639l606 -1994h8l582 1994h836l-987 -3088h-820l-540 1790h-9l-606 -1790h-815l-921 3088h835z" />
    <glyph glyph-name="X" unicode="X" horiz-adv-x="3232" 
d="M1176 1651l-988 1437h988l471 -798l471 798h987l-987 -1437l1142 -1651h-966l-647 1008l-709 -1008h-971z" />
    <glyph glyph-name="Y" unicode="Y" horiz-adv-x="2925" 
d="M1061 1483l-1139 1605h963l577 -839l578 839h962l-1138 -1605v-1483h-803v1483z" />
    <glyph glyph-name="Z" unicode="Z" horiz-adv-x="2896" 
d="M1397 680h1294v-680h-2646l1462 2408h-1212v680h2556z" />
    <glyph glyph-name="bracketleft" unicode="[" horiz-adv-x="1434" 
d="M782 2802v-3351h439v-434h-1008v4219h1008v-434h-439z" />
    <glyph glyph-name="backslash" unicode="\" horiz-adv-x="2372" 
d="M111 3400h589l1561 -3400h-582z" />
    <glyph glyph-name="bracketright" unicode="]" horiz-adv-x="1434" 
d="M651 -549v3351h-438v434h1008v-4219h-1008v434h438z" />
    <glyph glyph-name="asciicircum" unicode="^" 
d="M889 1393l-467 274l737 1544h492l737 -1544l-467 -274l-516 1101z" />
    <glyph glyph-name="underscore" unicode="_" horiz-adv-x="2048" 
d="M2048 -770h-2048v307h2048v-307z" />
    <glyph glyph-name="grave" unicode="`" horiz-adv-x="1647" 
d="M307 3031l455 328l577 -705l-331 -241z" />
    <glyph glyph-name="a" unicode="a" horiz-adv-x="2793" 
d="M1343 1524q-145 0 -254.5 -64t-167 -172t-57.5 -239q0 -205 129 -338t350 -133q222 0 351 133t129 338q0 131 -57.5 239t-167 172t-255.5 64zM2544 2101v-2101h-746v233h-8q-93 -148 -267 -225.5t-368 -77.5q-303 0 -546 153.5t-379 411.5t-136 558q0 224 76 426.5
t218 359t336.5 244.5t422.5 88q191 0 365 -71t286 -204v205h746z" />
    <glyph glyph-name="b" unicode="b" horiz-adv-x="2793" 
d="M221 0v3400h746v-1504q115 133 288 204t363 71q229 0 424 -88t335.5 -243t217 -359t76.5 -428q0 -301 -135.5 -559.5t-378.5 -411t-547 -152.5q-194 0 -365.5 76.5t-269.5 226.5h-8v-233h-746zM1421 1524q-145 0 -254.5 -64t-167 -172t-57.5 -239q0 -205 129 -338
t350 -133q222 0 351 133t129 338q0 129 -57.5 238t-167.5 173t-255 64z" />
    <glyph glyph-name="c" unicode="c" horiz-adv-x="1978" 
d="M1761 2048v-631q-199 148 -385 148q-142 0 -259 -67.5t-185 -185t-68 -259.5q0 -227 147 -371.5t378 -144.5q216 0 372 143v-631q-238 -119 -524 -119q-307 0 -570 142t-418 393.5t-155 562.5q0 250 90 461.5t250.5 363.5t374.5 235t461 83q270 0 491 -123z" />
    <glyph glyph-name="d" unicode="d" horiz-adv-x="2793" 
d="M1827 0v233h-8q-93 -148 -267 -225.5t-368 -77.5q-303 0 -546 153.5t-379 411.5t-136 558q0 224 76 426.5t218 359t336.5 244.5t422.5 88q190 0 364.5 -70.5t286.5 -204.5v1504h745v-3400h-745zM1372 1524q-145 0 -254.5 -64t-167 -172t-57.5 -239q0 -205 129 -338
t350 -133t350 133t129 338q0 131 -57.5 239t-167 172t-254.5 64z" />
    <glyph glyph-name="e" unicode="e" horiz-adv-x="2499" 
d="M848 1356h864q-26 147 -147 239.5t-275 92.5q-168 0 -288 -86t-154 -246zM2404 1004v-78h-1568q0 -467 467 -467q243 0 356 192h717q-58 -237 -217 -400t-382.5 -242t-469.5 -79q-352 0 -628 130t-432.5 383t-156.5 606q0 341 146.5 596.5t412 390.5t604.5 135
q272 0 486 -80.5t362.5 -233t225.5 -368.5t77 -485z" />
    <glyph glyph-name="f" unicode="f" horiz-adv-x="1589" 
d="M1065 1487v-1487h-746v1487h-262v614h262v266q0 264 37.5 421.5t175.5 316.5q140 164 330.5 250t403.5 86q177 0 319 -74v-643q-160 69 -262 69q-142 0 -200 -84t-58 -268v-340h520v-614h-520z" />
    <glyph glyph-name="g" unicode="g" horiz-adv-x="2773" 
d="M2552 2101v-1896q0 -652 -309.5 -953t-907.5 -301q-256 0 -521.5 89t-454.5 271.5t-220 442.5h836q28 -104 139 -160q101 -49 213 -49q279 0 379 155.5t100 446.5v99q-148 -148 -306 -217.5t-361 -69.5q-301 0 -537.5 140.5t-368 387.5t-131.5 545q0 230 77.5 436
t223 366t344.5 248.5t433 88.5q413 0 618 -291h8v221h746zM1352 1540q-145 0 -255 -64t-167.5 -173t-57.5 -238q0 -206 129.5 -338.5t350.5 -132.5q146 0 255.5 62t166.5 168.5t57 240.5q0 131 -57.5 239t-167 172t-254.5 64z" />
    <glyph glyph-name="h" unicode="h" horiz-adv-x="2707" 
d="M246 3400h745v-1565h8q130 173 293 254.5t379 81.5q390 0 590.5 -236t200.5 -649v-1286h-746v1077q0 230 -66.5 365t-269.5 135q-205 0 -297 -145t-92 -355v-1077h-745v3400z" />
    <glyph glyph-name="i" unicode="i" horiz-adv-x="1237" 
d="M991 2101v-2101h-745v2101h745zM618 3326q112 0 209 -56t153 -153t56 -209t-56 -208t-153 -153t-209 -57t-208.5 57t-152.5 153t-56 208t56 209t152.5 153t208.5 56z" />
    <glyph glyph-name="j" unicode="j" horiz-adv-x="1237" 
d="M991 2101v-3150h-745v3150h745zM618 3326q112 0 209 -56t153 -153t56 -209t-56 -208t-153 -153t-209 -57t-208.5 57t-152.5 153t-56 208t56 209t152.5 153t208.5 56z" />
    <glyph glyph-name="k" unicode="k" horiz-adv-x="2818" 
d="M991 3400v-2057l774 758h1020l-1052 -971l1118 -1130h-1045l-815 856v-856h-745v3400h745z" />
    <glyph glyph-name="l" unicode="l" horiz-adv-x="1237" 
d="M991 3400v-3400h-745v3400h745z" />
    <glyph glyph-name="m" unicode="m" horiz-adv-x="4051" 
d="M991 2101v-262h8q251 332 664 332q498 0 717 -402q105 192 298.5 297t413.5 105q717 0 717 -832v-1339h-745v1004q0 252 -53.5 412.5t-253.5 160.5q-227 0 -292 -156t-65 -417v-1004h-745v1004q0 264 -57.5 426.5t-274.5 162.5q-218 0 -275 -162.5t-57 -426.5v-1004h-745
v2101h745z" />
    <glyph glyph-name="n" unicode="n" horiz-adv-x="2707" 
d="M991 2101v-270h8q125 185 285 262.5t387 77.5q275 0 451.5 -108t258 -303.5t81.5 -461.5v-1298h-746v1024v98q0 202 -64 328.5t-272 126.5q-389 0 -389 -487v-1090h-745v2101h745z" />
    <glyph glyph-name="o" unicode="o" horiz-adv-x="2712" 
d="M1356 2171q341 0 631.5 -133.5t462 -389t171.5 -599.5q0 -343 -171.5 -598t-462 -388t-631.5 -133q-342 0 -632 133t-462 386.5t-172 599.5q0 345 171.5 600t462.5 388.5t632 133.5zM1356 1524q-145 0 -254.5 -64t-167 -172t-57.5 -239q0 -205 129 -338t350 -133t350 133
t129 338q0 131 -57.5 239t-167 172t-254.5 64z" />
    <glyph glyph-name="p" unicode="p" horiz-adv-x="2793" 
d="M967 2101v-237h8q97 150 268 228.5t367 78.5q228 0 425 -89.5t339.5 -246.5t219.5 -361t77 -430q0 -225 -76.5 -427.5t-218 -358t-336 -242t-422.5 -86.5q-187 0 -361 68.5t-290 202.5v-1250h-746v3150h746zM1421 1524q-145 0 -254.5 -64t-167 -172t-57.5 -239
q0 -205 129 -338t350 -133q222 0 351 133t129 338q0 129 -57.5 238t-167.5 173t-255 64z" />
    <glyph glyph-name="q" unicode="q" horiz-adv-x="2793" 
d="M2572 2101v-3150h-745v1250q-113 -134 -288 -202.5t-363 -68.5q-229 0 -423 86.5t-336 242.5t-218 358.5t-76 426.5q0 221 77.5 426t220 363t339 248t424.5 90q196 0 369.5 -79.5t265.5 -227.5h8v237h745zM1372 1524q-145 0 -254.5 -64t-167 -172t-57.5 -239
q0 -205 129 -338t350 -133t350 133t129 338q0 131 -57.5 239t-167 172t-254.5 64z" />
    <glyph glyph-name="r" unicode="r" horiz-adv-x="1855" 
d="M991 2101v-344h8q208 373 680 373h144v-717q-126 70 -316 70q-288 0 -402 -167t-114 -468v-848h-745v2101h745z" />
    <glyph glyph-name="s" unicode="s" horiz-adv-x="2101" 
d="M1884 2036l-250 -475q-191 102 -401 102q-82 0 -158 -35.5t-76 -107.5q0 -49 35.5 -83t89 -53t104 -28.5t107.5 -20.5q611 -121 611 -622q0 -262 -141 -439t-367 -260.5t-484 -83.5q-454 0 -848 242l271 520q122 -85 291 -149t299 -64q85 0 159 41.5t74 118.5
q0 76 -60.5 114.5t-160.5 62t-246 56.5q-214 57 -340.5 177.5t-126.5 375.5q0 247 130.5 414.5t342 249.5t453.5 82q393 0 692 -135z" />
    <glyph glyph-name="t" unicode="t" horiz-adv-x="1475" 
d="M1061 1487v-1487h-746v1487h-241v614h241v631h746v-631h422v-614h-422z" />
    <glyph glyph-name="u" unicode="u" horiz-adv-x="2699" 
d="M233 2101h746v-1122q0 -224 79 -339.5t294 -115.5q216 0 294 115.5t78 339.5v1122h746v-1265q0 -906 -1118 -906q-1119 0 -1119 906v1265z" />
    <glyph glyph-name="v" unicode="v" horiz-adv-x="2552" 
d="M774 2101l504 -1077l500 1077h835l-1097 -2101h-476l-1101 2101h835z" />
    <glyph glyph-name="w" unicode="w" horiz-adv-x="4080" 
d="M766 2101l524 -1138l529 1138h442l528 -1138l529 1138h823l-1098 -2101h-483l-520 1151l-520 -1151h-484l-1097 2101h827z" />
    <glyph glyph-name="x" unicode="x" horiz-adv-x="2916" 
d="M987 1139l-852 962h946l377 -434l377 434h963l-869 -962l1049 -1139h-979l-541 623l-540 -623h-979z" />
    <glyph glyph-name="y" unicode="y" horiz-adv-x="2679" 
d="M954 287l-1015 1814h860l561 -1077l549 1077h848l-1684 -3150h-835z" />
    <glyph glyph-name="z" unicode="z" horiz-adv-x="2290" 
d="M1278 618h885v-618h-2130l987 1483h-856v618h2097z" />
    <glyph glyph-name="braceleft" unicode="{" horiz-adv-x="1442" 
d="M147 930v426q132 0 209.5 40t77.5 177v1036q0 200 79.5 343t190 213.5t193.5 70.5h397v-492h-102q-125 0 -156.5 -62t-31.5 -179v-922q0 -372 -394 -434v-8q105 -15 183.5 -45t144.5 -133t66 -302v-909q0 -120 31.5 -181t156.5 -61h102v-491h-397q-82 0 -193 70
t-190.5 210t-79.5 338v1037q0 160 -75.5 209t-211.5 49z" />
    <glyph glyph-name="bar" unicode="|" horiz-adv-x="2372" 
d="M1495 3400v-3400h-614v3400h614z" />
    <glyph glyph-name="braceright" unicode="}" horiz-adv-x="1442" 
d="M1294 1356v-426q-135 0 -210.5 -49.5t-75.5 -208.5v-1037q0 -198 -79.5 -338t-190.5 -210t-193 -70h-398v491h103q124 0 156 61t32 181v909q0 199 66 302t144.5 133t182.5 45v8q-393 62 -393 434v922q0 117 -32 179t-156 62h-103v492h398q83 0 193.5 -70.5t190 -213.5
t79.5 -343v-1036q0 -137 77.5 -177t208.5 -40z" />
    <glyph glyph-name="asciitilde" unicode="~" 
d="M2142 1528l467 -398q-100 -170 -196.5 -304t-231 -234t-289.5 -100q-70 0 -135.5 17.5t-128.5 46.5t-118 61t-121 71q-54 32 -162.5 102.5t-173.5 103t-123 32.5q-116 0 -266 -344l-463 393q116 160 216.5 298.5t226 241.5t278.5 103q221 0 524 -229
q114 -88 235.5 -146.5t206.5 -58.5q74 0 142 111t112 233z" />
    <glyph glyph-name="Ccedilla" unicode="&#x201a;" horiz-adv-x="1384" 
d="M610 782h697l-754 -1355h-475z" />
    <glyph glyph-name="Ntilde" unicode="&#x201e;" horiz-adv-x="2433" 
d="M610 782h697l-754 -1355h-475zM1659 782h696l-753 -1355h-476z" />
    <glyph glyph-name="Odieresis" unicode="&#x2026;" horiz-adv-x="4096" 
d="M2048 877q132 0 241.5 -64t173.5 -174t64 -242q0 -130 -64 -240t-175 -174.5t-240 -64.5t-240 64.5t-175 174.5t-64 240q0 132 64 242t173.5 174t241.5 64zM3412 877q132 0 241.5 -64t173.5 -174t64 -242q0 -130 -64 -240t-175 -174.5t-240 -64.5t-240 64.5t-175 174.5
t-64 240q0 132 64 242t173.5 174t241.5 64zM684 877q132 0 241.5 -64t173.5 -174t64 -242q0 -130 -64 -240t-175 -174.5t-240 -64.5t-240 64.5t-175 174.5t-64 240q0 132 64 242t173.5 174t241.5 64z" />
    <glyph glyph-name="Udieresis" unicode="&#x2020;" 
d="M1065 3088h680v-839h725v-590h-725v-2396h-680v2396h-721v590h721v839z" />
    <glyph glyph-name="aacute" unicode="&#x2021;" 
d="M1069 3088h680v-757h721v-590h-721v-582h721v-590h-721v-1302h-680v1302h-725v590h725v582h-725v590h725v757z" />
    <glyph glyph-name="acircumflex" unicode="&#x2030;" horiz-adv-x="5980" 
d="M922 3129q233 0 425 -86.5t305 -256t113 -406.5q0 -242 -110.5 -414.5t-302 -260t-430.5 -87.5q-238 0 -430.5 87.5t-303 260t-110.5 414.5q0 237 113 406.5t304.5 256t426.5 86.5zM922 2720q-95 0 -175 -47t-127 -126.5t-47 -174.5q0 -144 102 -244t247 -100
q94 0 174.5 46t127 124t46.5 174q0 95 -47 174.5t-126.5 126.5t-174.5 47zM2691 3088h401l-1794 -3088h-401zM3072 1470q235 0 426.5 -86.5t304.5 -256t113 -406.5q0 -242 -110.5 -414.5t-303 -260t-430.5 -87.5t-430.5 87.5t-303 260t-110.5 414.5q0 237 113 406.5
t304.5 256t426.5 86.5zM3072 1061q-95 0 -175 -47t-126.5 -126.5t-46.5 -174.5q0 -144 102 -244t246 -100q94 0 174.5 46t127 124t46.5 174q0 95 -46.5 174.5t-126.5 126.5t-175 47zM5059 1470q233 0 425 -86.5t305 -256t113 -406.5q0 -242 -110.5 -414.5t-302 -260
t-430.5 -87.5q-238 0 -430.5 87.5t-303 260t-110.5 414.5q0 237 113 406.5t304.5 256t426.5 86.5zM5059 1061q-95 0 -175 -47t-127 -126.5t-47 -174.5q0 -144 102 -244t247 -100q94 0 174.5 46t127 124t46.5 174q0 95 -47 174.5t-126.5 126.5t-174.5 47z" />
    <glyph glyph-name="atilde" unicode="&#x2039;" horiz-adv-x="1450" 
d="M705 1311l528 -713l-422 -295l-705 1008l705 1007l410 -282z" />
    <glyph glyph-name="edieresis" unicode="&#x2018;" horiz-adv-x="1524" 
d="M774 1733h-696l753 1355h476z" />
    <glyph glyph-name="iacute" unicode="&#x2019;" horiz-adv-x="1524" 
d="M750 3088h696l-754 -1355h-475z" />
    <glyph glyph-name="igrave" unicode="&#x201c;" horiz-adv-x="2572" 
d="M1823 1733h-697l754 1355h475zM774 1733h-696l753 1355h476z" />
    <glyph glyph-name="icircumflex" unicode="&#x201d;" horiz-adv-x="2572" 
d="M750 3088h696l-754 -1355h-475zM1798 3088h696l-753 -1355h-475z" />
    <glyph glyph-name="idieresis" unicode="&#x2022;" 
d="M1409 2318q216 0 393 -104t277 -282t100 -388q0 -209 -100.5 -386t-277 -280.5t-392.5 -103.5t-393.5 103.5t-279 281.5t-101.5 385q0 209 101.5 387.5t279 282.5t393.5 104z" />
    <glyph glyph-name="ntilde" unicode="&#x2013;" horiz-adv-x="2048" 
d="M0 1622h2048v-614h-2048v614z" />
    <glyph glyph-name="oacute" unicode="&#x2014;" horiz-adv-x="4096" 
d="M0 1622h4096v-614h-4096v614z" />
    <glyph glyph-name="ocircumflex" unicode="&#x2122;" horiz-adv-x="3850" 
d="M3682 3088v-1654h-360v1335h-8l-480 -1335h-213l-479 1335h-8v-1335h-360v1654h581l373 -979l373 979h581zM1573 3088v-319h-504v-1335h-397v1335h-504v319h1405z" />
    <glyph glyph-name="otilde" unicode="&#x203a;" horiz-adv-x="1450" 
d="M217 598l528 713l-516 725l410 282l704 -1007l-704 -1008z" />
    <glyph glyph-name="sterling" unicode="&#xa3;" horiz-adv-x="2003" 
d="M954 3088h803v-2084q0 -247 -63.5 -445.5t-192.5 -342.5t-322 -221t-446 -77q-498 0 -794 455l462 487q194 -262 324 -262q150 0 189.5 127.5t39.5 327.5v2035z" />
    <glyph glyph-name="section" unicode="&#xa4;" 
d="M201 623l270 270q-205 271 -205 655q0 427 205 676l-270 275l254 258l274 -275q127 98 311.5 155.5t376.5 57.5q189 0 364 -57t292 -156l274 275l254 -254l-254 -258q100 -134 160.5 -317.5t60.5 -371.5q0 -189 -62 -366t-167 -293l270 -270l-246 -267l-274 271
q-125 -105 -304.5 -163t-367.5 -58q-424 0 -692 225l-270 -270zM1417 2081q-149 0 -272 -72t-193.5 -198t-70.5 -275q0 -229 152.5 -370.5t383.5 -141.5q232 0 384.5 141.5t152.5 370.5q0 149 -70 274.5t-194.5 198t-272.5 72.5z" />
    <glyph glyph-name="paragraph" unicode="&#xa6;" horiz-adv-x="2372" 
d="M1495 1352v-1352h-614v1352h614zM1495 3400v-1352h-614v1352h614z" />
    <glyph glyph-name="germandbls" unicode="&#xa7;" 
d="M1167 1106l684 -340q107 85 107 221q0 109 -82.5 176.5t-216.5 130.5l-672 340q-127 -73 -127 -221q0 -60 27 -107t71.5 -81.5t99 -63t109.5 -55.5zM2306 2413h-643q-24 110 -101 177.5t-190 67.5q-97 0 -163 -57.5t-66 -151.5q0 -72 34.5 -126t92 -96t126 -75.5
t128.5 -62.5l454 -229q205 -102 328.5 -188.5t198.5 -221.5t75 -336q0 -369 -344 -643q103 -90 156 -235t53 -297q0 -283 -150.5 -483t-396 -299t-522.5 -99q-289 0 -550 104.5t-422.5 322t-161.5 527.5h749q0 -155 123 -263.5t279 -108.5q132 0 221.5 74t89.5 200
q0 125 -82 186.5t-262 149.5l-647 315q-480 237 -480 676q0 190 96 361.5t257 306.5q-87 84 -136 219.5t-49 259.5q0 248 131 425.5t345.5 267t457.5 89.5q259 0 474 -79t350.5 -249t146.5 -429z" />
    <glyph glyph-name="registered" unicode="&#xa8;" horiz-adv-x="2253" 
d="M1004 3863q0 -111 -54.5 -203.5t-146.5 -145.5t-201 -53q-169 0 -287 117t-118 285q0 167 118 284t287 117q107 0 200 -54t147.5 -146.5t54.5 -200.5zM2052 3863q0 -110 -54 -203t-145.5 -146t-201.5 -53q-169 0 -287.5 117t-118.5 285q0 167 119 284t287 117
q107 0 200 -54t147 -147t54 -200zM1065 2408v-516h905v-680h-905v-532h954v-680h-1757v3088h1757v-680h-954z" />
    <glyph glyph-name="copyright" unicode="&#xa9;" horiz-adv-x="3277" 
d="M1638 -82q-443 0 -816 217.5t-589.5 590.5t-216.5 814q0 444 216 819t589.5 593t816.5 218q334 0 630 -125t519.5 -350t348 -522.5t124.5 -632.5q0 -441 -216.5 -814t-590 -590.5t-815.5 -217.5zM1638 303q344 0 627.5 159t446.5 443t163 635q0 268 -94 498.5t-262 397
t-394.5 258t-486.5 91.5q-349 0 -632.5 -159t-444 -443.5t-160.5 -642.5q0 -354 161 -637t444.5 -441.5t631.5 -158.5zM2466 1880h-369q-23 144 -133 221.5t-268 77.5q-155 0 -270 -84.5t-174.5 -225.5t-59.5 -304q0 -157 64.5 -301.5t182.5 -235t269 -90.5q98 0 185.5 39
t142.5 110t61 166h369q-32 -286 -248.5 -458t-509.5 -172q-197 0 -365 70.5t-288.5 200.5t-184 299t-63.5 363q0 414 241 676t652 262q298 0 507.5 -164.5t258.5 -449.5z" />
    <glyph glyph-name="acute" unicode="&#xab;" horiz-adv-x="2470" 
d="M1724 1311l529 -713l-422 -295l-705 1008l705 1007l410 -282zM705 1311l528 -713l-422 -295l-705 1008l705 1007l410 -282z" />
    <glyph glyph-name="dieresis" unicode="&#xac;" 
d="M1839 578v659h-1483v614h2098v-1273h-615z" />
    <glyph glyph-name="notequal" unicode="&#xad;" horiz-adv-x="2470" 
d="M307 3080h1852v-438h-1852v438z" />
    <glyph glyph-name="AE" unicode="&#xae;" horiz-adv-x="3277" 
d="M1638 -82q-443 0 -816 217.5t-589.5 590.5t-216.5 814q0 444 216 819t589.5 593t816.5 218q334 0 630 -125t519.5 -350t348 -522.5t124.5 -632.5q0 -441 -216.5 -814t-590 -590.5t-815.5 -217.5zM1638 303q344 0 627.5 159t446.5 443t163 635q0 268 -94 498.5t-262 397
t-394.5 258t-486.5 91.5q-349 0 -632.5 -159t-444 -443.5t-160.5 -642.5q0 -354 161 -637t444.5 -441.5t631.5 -158.5zM2007 1430l410 -713h-410l-377 713h-262v-713h-377v1687h819q332 0 494 -102.5t162 -413.5q0 -227 -114.5 -335t-344.5 -123zM1368 1683h451
q154 0 224.5 52t70.5 202q0 113 -102 142.5t-279 29.5h-365v-426z" />
    <glyph glyph-name="Oslash" unicode="&#xaf;" horiz-adv-x="1327" 
d="M1065 3088v-3088h-803v3088h803zM139 4264q107 0 200 -54t147.5 -146.5t54.5 -200.5q0 -111 -54.5 -203.5t-146.5 -145.5t-201 -53q-169 0 -287 117t-118 285q0 167 118 284t287 117zM1188 4264q107 0 200 -54t147 -147t54 -200q0 -110 -54 -203t-145.5 -146t-201.5 -53
q-169 0 -287.5 116.5t-118.5 285.5q0 167 118.5 284t287.5 117z" />
    <glyph glyph-name="infinity" unicode="&#xb0;" horiz-adv-x="1638" 
d="M1434 2552q0 -164 -84.5 -305t-227 -223t-307.5 -82q-169 0 -309 82.5t-220.5 222t-80.5 305.5q0 168 80.5 310t221.5 225t308 83q163 0 306.5 -83t228 -225.5t84.5 -309.5zM1085 2556q0 109 -78.5 187.5t-191.5 78.5q-106 0 -184 -79.5t-78 -186.5q0 -110 78 -188
t188 -78q111 0 188.5 77.5t77.5 188.5z" />
    <glyph glyph-name="plusminus" unicode="&#xb1;" 
d="M1098 2097v582h614v-582h742v-614h-742v-582h-614v582h-742v614h742zM356 614h2098v-614h-2098v614z" />
    <glyph glyph-name="lessequal" unicode="&#xb2;" horiz-adv-x="1327" 
d="M1065 3088v-3088h-803v3088h803z" />
    <glyph glyph-name="greaterequal" unicode="&#xb3;" horiz-adv-x="1237" 
d="M991 2101v-2101h-745v2101h745zM618 3326q112 0 209 -56t153 -153t56 -209t-56 -208t-153 -153t-209 -57t-208.5 57t-152.5 153t-56 208t56 209t152.5 153t208.5 56z" />
    <glyph glyph-name="mu" unicode="&#xb5;" horiz-adv-x="2699" 
d="M233 2101h746v-1122q0 -224 79 -339.5t294 -115.5q216 0 294 115.5t78 339.5v1122h746v-1265q0 -481 -294.5 -693.5t-659.5 -212.5q-327 0 -537 201v-1180h-746v3150z" />
    <glyph glyph-name="partialdiff" unicode="&#xb6;" 
d="M1073 3088h1544v-372h-270v-3412h-414v3408h-381v-3408h-413v1884q-401 39 -649 237.5t-297 642.5q-5 29 -5 82q0 230 125.5 448.5t330.5 354t429 135.5z" />
    <glyph glyph-name="summation" unicode="&#xb7;" horiz-adv-x="1405" 
d="M705 1528q132 0 241.5 -64t173.5 -173.5t64 -241.5q0 -131 -64 -240.5t-174.5 -174.5t-240.5 -65t-241 65t-175 174.5t-64 240.5q0 201 140 340t340 139z" />
    <glyph glyph-name="product" unicode="&#xb8;" horiz-adv-x="2499" 
d="M1126 2875q0 -109 -54 -202t-145.5 -146t-201.5 -53q-169 0 -287.5 116t-118.5 285q0 109 54.5 201.5t148 146.5t203.5 54q107 0 200 -54t147 -147t54 -201zM2175 2875q0 -109 -54 -202t-145.5 -146t-201.5 -53q-169 0 -287.5 116t-118.5 285q0 109 54.5 202t148 146.5
t203.5 53.5q107 0 200 -54t147 -147t54 -201zM2404 926h-1568q0 -467 467 -467q243 0 356 192h717q-58 -237 -217 -400t-382.5 -242t-469.5 -79q-352 0 -628 130t-432.5 383t-156.5 606q0 341 146.5 596.5t412 390.5t604.5 135q272 0 486 -80.5t362.5 -233t225.5 -368.5
t77 -485v-78zM1712 1356q-26 147 -147 239.5t-275 92.5q-168 0 -288 -86t-154 -246h864z" />
    <glyph glyph-name="pi" unicode="&#xb9;" horiz-adv-x="1679" 
d="M840 3170q220 0 409.5 -79.5t301.5 -231.5t112 -360q0 -207 -112 -360t-301.5 -232.5t-409.5 -79.5q-221 0 -409.5 79.5t-299.5 232.5t-111 360t111 359.5t299.5 232t409.5 79.5zM840 2781q-128 0 -218 -82.5t-90 -199.5q0 -120 89.5 -201.5t218.5 -81.5t220 82t91 201
q0 116 -91 199t-220 83zM1663 1290h-1643v307h1643v-307z" />
    <glyph glyph-name="ordfeminine" unicode="&#xbb;" horiz-adv-x="2470" 
d="M217 598l528 713l-516 725l410 282l704 -1007l-704 -1008zM1237 598l528 713l-516 725l410 282l704 -1007l-704 -1008z" />
    <glyph glyph-name="ordmasculine" unicode="&#xbc;" horiz-adv-x="1237" 
d="M991 2101v-3150h-745v3150h745zM618 3326q112 0 209 -56t153 -153t56 -209t-56 -208t-153 -153t-209 -57t-208.5 57t-152.5 153t-56 208t56 209t152.5 153t208.5 56z" />
    <glyph glyph-name="Omega" unicode="&#xbd;" horiz-adv-x="2523" 
d="M2277 2916l-319 -622q-247 205 -533 205q-126 0 -235 -69t-109 -189q0 -119 97 -180t260 -115l204 -62q361 -105 561.5 -300.5t200.5 -543.5q0 -560 -319 -831q-344 -291 -877 -291q-583 0 -1085 352l344 648q363 -320 713 -320q155 0 272 79.5t117 231.5
q0 147 -133 217.5t-355 135.5q-291 82 -464.5 169t-272 253t-98.5 450q0 308 136 543.5t379 364t550 128.5q237 0 499 -68.5t467 -185.5z" />
    <glyph glyph-name="ae" unicode="&#xbe;" horiz-adv-x="2101" 
d="M1884 2036l-250 -475q-191 102 -401 102q-82 0 -158 -35.5t-76 -107.5q0 -49 35.5 -83t89 -53t104 -28.5t107.5 -20.5q611 -121 611 -622q0 -262 -141 -439t-367 -260.5t-484 -83.5q-454 0 -848 242l271 520q122 -85 291 -149t299 -64q85 0 159 41.5t74 118.5
q0 76 -60.5 114.5t-160.5 62t-246 56.5q-214 57 -340.5 177.5t-126.5 375.5q0 247 130.5 414.5t342 249.5t453.5 82q393 0 692 -135z" />
    <glyph glyph-name="oslash" unicode="&#xbf;" horiz-adv-x="1237" 
d="M991 2101v-2101h-745v2101h745zM94 3277q107 0 200 -54t147.5 -146.5t54.5 -201.5q0 -110 -54.5 -202.5t-146.5 -145.5t-201 -53q-169 0 -287 116t-118 285q0 109 54 201.5t148 146.5t203 54zM1143 3277q107 0 200 -54t147 -147t54 -201q0 -109 -54 -202t-145.5 -146
t-201.5 -53q-169 0 -287.5 116t-118.5 285q0 109 54.5 201.5t148 146.5t203.5 54z" />
    <glyph glyph-name="questiondown" unicode="&#xc0;" horiz-adv-x="3199" 
d="M1049 537l-213 -537h-852l1187 3088h877l1163 -3088h-856l-201 537h-1105zM1610 2134h-8l-332 -983h667z" />
    <glyph glyph-name="questiondown" unicode="&#x410;" horiz-adv-x="3199" 
d="M1049 537l-213 -537h-852l1187 3088h877l1163 -3088h-856l-201 537h-1105zM1610 2134h-8l-332 -983h667z" />
    <glyph glyph-name="exclamdown" unicode="&#xc1;" horiz-adv-x="2707" 
d="M2298 3088v-680h-1233v-426h455q351 0 596.5 -113t373 -339t127.5 -555q0 -314 -141 -534.5t-395.5 -330.5t-589.5 -110h-1229v3088h2036zM1065 647h135q212 0 330 18t195 94t77 240q0 157 -76 230t-194 89.5t-332 16.5h-135v-688z" />
    <glyph glyph-name="exclamdown" unicode="&#x411;" horiz-adv-x="2707" 
d="M2298 3088v-680h-1233v-426h455q351 0 596.5 -113t373 -339t127.5 -555q0 -314 -141 -534.5t-395.5 -330.5t-589.5 -110h-1229v3088h2036zM1065 647h135q212 0 330 18t195 94t77 240q0 157 -76 230t-194 89.5t-332 16.5h-135v-688z" />
    <glyph glyph-name="logicalnot" unicode="&#xc2;" horiz-adv-x="2773" 
d="M262 0v3088h1147q918 0 918 -802q0 -458 -340 -631v-8q322 -42 476 -247.5t154 -539.5q0 -449 -319.5 -654.5t-798.5 -205.5h-1237zM1065 614h102q296 0 467.5 59.5t171.5 268.5t-141 272.5t-379 63.5h-139h-82v-664zM1065 1876h90q197 0 315.5 60.5t118.5 238.5
q0 188 -125.5 243.5t-341.5 55.5h-57v-598z" />
    <glyph glyph-name="logicalnot" unicode="&#x412;" horiz-adv-x="2773" 
d="M262 0v3088h1147q918 0 918 -802q0 -458 -340 -631v-8q322 -42 476 -247.5t154 -539.5q0 -449 -319.5 -654.5t-798.5 -205.5h-1237zM1065 614h102q296 0 467.5 59.5t171.5 268.5t-141 272.5t-379 63.5h-139h-82v-664zM1065 1876h90q197 0 315.5 60.5t118.5 238.5
q0 188 -125.5 243.5t-341.5 55.5h-57v-598z" />
    <glyph glyph-name="radical" unicode="&#xc3;" horiz-adv-x="2060" 
d="M1065 2408v-2408h-803v3088h1774v-680h-971z" />
    <glyph glyph-name="radical" unicode="&#x413;" horiz-adv-x="2060" 
d="M1065 2408v-2408h-803v3088h1774v-680h-971z" />
    <glyph glyph-name="florin" unicode="&#xc4;" horiz-adv-x="2957" 
d="M385 3088h2310v-2457h238v-1139h-762v504h-1483v-504h-762v1139q171 0 264.5 136.5t135 419t50.5 687.5t9 1214zM1851 631v1777h-745q0 -477 -6 -757t-27 -480.5t-63 -329.5t-117 -210h958z" />
    <glyph glyph-name="florin" unicode="&#x414;" horiz-adv-x="2957" 
d="M385 3088h2310v-2457h238v-1139h-762v504h-1483v-504h-762v1139q171 0 264.5 136.5t135 419t50.5 687.5t9 1214zM1851 631v1777h-745q0 -477 -6 -757t-27 -480.5t-63 -329.5t-117 -210h958z" />
    <glyph glyph-name="approxequal" unicode="&#xc5;" horiz-adv-x="2253" 
d="M1065 2408v-516h905v-680h-905v-532h954v-680h-1757v3088h1757v-680h-954z" />
    <glyph glyph-name="approxequal" unicode="&#x415;" horiz-adv-x="2253" 
d="M1065 2408v-516h905v-680h-905v-532h954v-680h-1757v3088h1757v-680h-954z" />
    <glyph glyph-name="Delta" unicode="&#xc6;" horiz-adv-x="4571" 
d="M2687 3088v-1273h8l807 1273h991l-1061 -1462l1176 -1626h-1040l-873 1339h-8v-1339h-803v1339h-8l-872 -1339h-1041l1176 1626l-1061 1462h991l807 -1273h8v1273h803z" />
    <glyph glyph-name="Delta" unicode="&#x416;" horiz-adv-x="4571" 
d="M2687 3088v-1273h8l807 1273h991l-1061 -1462l1176 -1626h-1040l-873 1339h-8v-1339h-803v1339h-8l-872 -1339h-1041l1176 1626l-1061 1462h991l807 -1273h8v1273h803z" />
    <glyph glyph-name="guillemotleft" unicode="&#xc7;" horiz-adv-x="2523" 
d="M1802 1663q162 -54 289 -163.5t199.5 -251.5t72.5 -290q0 -257 -84.5 -454t-242.5 -327t-377 -194.5t-492 -64.5q-583 0 -1085 352l344 648q363 -320 713 -320q389 0 389 348q0 158 -113 243t-293 85h-463v610h447q148 0 231.5 84.5t83.5 235.5q0 133 -95 214t-245 81
q-148 0 -305.5 -56.5t-267.5 -148.5l-320 622q207 117 469 185.5t498 68.5q315 0 554.5 -99.5t373 -305t133.5 -508.5q0 -206 -113 -362t-301 -232z" />
    <glyph glyph-name="guillemotleft" unicode="&#x417;" horiz-adv-x="2523" 
d="M1802 1663q162 -54 289 -163.5t199.5 -251.5t72.5 -290q0 -257 -84.5 -454t-242.5 -327t-377 -194.5t-492 -64.5q-583 0 -1085 352l344 648q363 -320 713 -320q389 0 389 348q0 158 -113 243t-293 85h-463v610h447q148 0 231.5 84.5t83.5 235.5q0 133 -95 214t-245 81
q-148 0 -305.5 -56.5t-267.5 -148.5l-320 622q207 117 469 185.5t498 68.5q315 0 554.5 -99.5t373 -305t133.5 -508.5q0 -206 -113 -362t-301 -232z" />
    <glyph glyph-name="guillemotright" unicode="&#xc8;" horiz-adv-x="3609" 
d="M3342 0h-802v1892h-9l-1470 -1892h-803v3088h803v-1888h8l1471 1888h802v-3088z" />
    <glyph glyph-name="guillemotright" unicode="&#x418;" horiz-adv-x="3609" 
d="M3342 0h-802v1892h-9l-1470 -1892h-803v3088h803v-1888h8l1471 1888h802v-3088z" />
    <glyph glyph-name="ellipsis" unicode="&#xc9;" horiz-adv-x="3609" 
d="M1479 3858q20 -129 111.5 -201.5t224.5 -72.5q136 0 227 72.5t112 201.5h455q-12 -219 -116.5 -375.5t-281.5 -236.5t-396 -80q-220 0 -397 80t-281.5 236.5t-116.5 375.5h459zM3342 0h-802v1892h-9l-1470 -1892h-803v3088h803v-1888h8l1471 1888h802v-3088z" />
    <glyph glyph-name="ellipsis" unicode="&#x419;" horiz-adv-x="3609" 
d="M1479 3858q20 -129 111.5 -201.5t224.5 -72.5q136 0 227 72.5t112 201.5h455q-12 -219 -116.5 -375.5t-281.5 -236.5t-396 -80q-220 0 -397 80t-281.5 236.5t-116.5 375.5h459zM3342 0h-802v1892h-9l-1470 -1892h-803v3088h803v-1888h8l1471 1888h802v-3088z" />
    <glyph glyph-name="nonbreakingspace" unicode="&#xca;" horiz-adv-x="3105" 
d="M2044 3088h995l-1229 -1462l1340 -1626h-1041l-1036 1339h-8v-1339h-803v3088h803v-1273h8z" />
    <glyph glyph-name="nonbreakingspace" unicode="&#x41a;" horiz-adv-x="3105" 
d="M2044 3088h995l-1229 -1462l1340 -1626h-1041l-1036 1339h-8v-1339h-803v3088h803v-1273h8z" />
    <glyph glyph-name="Agrave" unicode="&#xcb;" horiz-adv-x="2957" 
d="M1147 2408q0 -802 -23.5 -1218.5t-124.5 -706t-328 -427.5t-634 -138l-82 680q170 0 251 68.5t119.5 300.5t49 682.5t10.5 1438.5h2310v-3088h-803v2408h-745z" />
    <glyph glyph-name="Agrave" unicode="&#x41b;" horiz-adv-x="2957" 
d="M1147 2408q0 -802 -23.5 -1218.5t-124.5 -706t-328 -427.5t-634 -138l-82 680q170 0 251 68.5t119.5 300.5t49 682.5t10.5 1438.5h2310v-3088h-803v2408h-745z" />
    <glyph glyph-name="Atilde" unicode="&#xcc;" horiz-adv-x="4026" 
d="M602 3088h791l626 -1650l664 1650h799l467 -3088h-803l-226 1778h-8l-741 -1778h-320l-708 1778h-8l-258 -1778h-799z" />
    <glyph glyph-name="Atilde" unicode="&#x41c;" horiz-adv-x="4026" 
d="M602 3088h791l626 -1650l664 1650h799l467 -3088h-803l-226 1778h-8l-741 -1778h-320l-708 1778h-8l-258 -1778h-799z" />
    <glyph glyph-name="Otilde" unicode="&#xcd;" horiz-adv-x="3289" 
d="M2224 1896v1192h803v-3088h-803v1266h-1159v-1266h-803v3088h803v-1192h1159z" />
    <glyph glyph-name="Otilde" unicode="&#x41d;" horiz-adv-x="3289" 
d="M2224 1896v1192h803v-3088h-803v1266h-1159v-1266h-803v3088h803v-1192h1159z" />
    <glyph glyph-name="OE" unicode="&#xce;" horiz-adv-x="3629" 
d="M3523 1602q0 -367 -125.5 -682.5t-356.5 -545t-544.5 -353t-681.5 -123.5t-681 123.5t-545.5 354.5t-357.5 545t-125 681q0 342 138.5 634.5t379 507t550.5 331t641 116.5q332 0 641 -116.5t549.5 -331t379 -507t138.5 -634.5zM942 1597q0 -261 117.5 -472t318 -330
t437.5 -119q238 0 438 119.5t317 330t117 471.5q0 211 -118 399.5t-319 302.5t-435 114q-233 0 -434.5 -114t-320 -302.5t-118.5 -399.5z" />
    <glyph glyph-name="OE" unicode="&#x41e;" horiz-adv-x="3629" 
d="M3523 1602q0 -367 -125.5 -682.5t-356.5 -545t-544.5 -353t-681.5 -123.5t-681 123.5t-545.5 354.5t-357.5 545t-125 681q0 342 138.5 634.5t379 507t550.5 331t641 116.5q332 0 641 -116.5t549.5 -331t379 -507t138.5 -634.5zM942 1597q0 -261 117.5 -472t318 -330
t437.5 -119q238 0 438 119.5t317 330t117 471.5q0 211 -118 399.5t-319 302.5t-435 114q-233 0 -434.5 -114t-320 -302.5t-118.5 -399.5z" />
    <glyph glyph-name="oe" unicode="&#xcf;" horiz-adv-x="3289" 
d="M2224 3088h803v-3088h-803v2458h-1159v-2458h-803v3088h803h1159z" />
    <glyph glyph-name="oe" unicode="&#x41f;" horiz-adv-x="3289" 
d="M2224 3088h803v-3088h-803v2458h-1159v-2458h-803v3088h803h1159z" />
    <glyph glyph-name="emdash" unicode="&#xd0;" horiz-adv-x="2707" 
d="M262 3088h1229q339 0 591.5 -108.5t391.5 -336.5t139 -570q0 -272 -71.5 -470t-211 -326t-342.5 -190.5t-468 -62.5h-455v-1024h-803v3088zM1065 1671h135q193 0 308 19t192.5 101t77.5 257q0 183 -74.5 268t-188 105t-315.5 20h-135v-770z" />
    <glyph glyph-name="emdash" unicode="&#x420;" horiz-adv-x="2707" 
d="M262 3088h1229q339 0 591.5 -108.5t391.5 -336.5t139 -570q0 -272 -71.5 -470t-211 -326t-342.5 -190.5t-468 -62.5h-455v-1024h-803v3088zM1065 1671h135q193 0 308 19t192.5 101t77.5 257q0 183 -74.5 268t-188 105t-315.5 20h-135v-770z" />
    <glyph glyph-name="endash" unicode="&#xd1;" horiz-adv-x="2703" 
d="M2470 2052q-121 164 -308.5 252t-396.5 88q-239 0 -427.5 -113.5t-292 -310t-103.5 -432.5q0 -242 105 -433.5t295.5 -299t435.5 -107.5q195 0 379.5 88t312.5 240v-963q-268 -81 -406.5 -112t-302.5 -31q-321 0 -619 118t-540 337q-496 448 -496 1167q0 318 117.5 610.5
t337.5 520.5q153 156 344 268t404.5 171.5t427.5 59.5q357 0 733 -155v-963z" />
    <glyph glyph-name="endash" unicode="&#x421;" horiz-adv-x="2703" 
d="M2470 2052q-121 164 -308.5 252t-396.5 88q-239 0 -427.5 -113.5t-292 -310t-103.5 -432.5q0 -242 105 -433.5t295.5 -299t435.5 -107.5q195 0 379.5 88t312.5 240v-963q-268 -81 -406.5 -112t-302.5 -31q-321 0 -619 118t-540 337q-496 448 -496 1167q0 318 117.5 610.5
t337.5 520.5q153 156 344 268t404.5 171.5t427.5 59.5q357 0 733 -155v-963z" />
    <glyph glyph-name="quotedblleft" unicode="&#xd2;" horiz-adv-x="2183" 
d="M1491 0h-803v2408h-663v680h2129v-680h-663v-2408z" />
    <glyph glyph-name="quotedblleft" unicode="&#x422;" horiz-adv-x="2183" 
d="M1491 0h-803v2408h-663v680h2129v-680h-663v-2408z" />
    <glyph glyph-name="quotedblright" unicode="&#xd3;" horiz-adv-x="3125" 
d="M1683 1606l635 1482h836l-1421 -3088h-824l373 778l-1327 2310h922z" />
    <glyph glyph-name="quotedblright" unicode="&#x423;" horiz-adv-x="3125" 
d="M1683 1606l635 1482h836l-1421 -3088h-824l373 778l-1327 2310h922z" />
    <glyph glyph-name="quoteleft" unicode="&#xd4;" horiz-adv-x="4096" 
d="M1647 209q-317 0 -599.5 96t-498 278.5t-337.5 443.5t-122 575q0 289 128.5 528.5t347.5 405.5t501 254.5t580 88.5v209h802v-209q298 0 580 -88.5t501.5 -254.5t347.5 -405.5t128 -528.5q0 -316 -121 -575.5t-337.5 -442.5t-499 -279t-599.5 -96v-209h-802v209z
M1647 2167q-189 0 -356 -77t-266 -208t-99 -285q0 -192 99 -346t265 -241.5t357 -87.5v1245zM2449 922q191 0 357 87.5t265 241.5t99 346q0 154 -99 285t-266 208t-356 77v-1245z" />
    <glyph glyph-name="quoteleft" unicode="&#x424;" horiz-adv-x="4096" 
d="M1647 209q-317 0 -599.5 96t-498 278.5t-337.5 443.5t-122 575q0 289 128.5 528.5t347.5 405.5t501 254.5t580 88.5v209h802v-209q298 0 580 -88.5t501.5 -254.5t347.5 -405.5t128 -528.5q0 -316 -121 -575.5t-337.5 -442.5t-499 -279t-599.5 -96v-209h-802v209z
M1647 2167q-189 0 -356 -77t-266 -208t-99 -285q0 -192 99 -346t265 -241.5t357 -87.5v1245zM2449 922q191 0 357 87.5t265 241.5t99 346q0 154 -99 285t-266 208t-356 77v-1245z" />
    <glyph glyph-name="quoteright" unicode="&#xd5;" horiz-adv-x="3232" 
d="M188 3088h988l471 -798l471 798h987l-987 -1437l1142 -1651h-966l-647 1008l-709 -1008h-971l1209 1651z" />
    <glyph glyph-name="quoteright" unicode="&#x425;" horiz-adv-x="3232" 
d="M188 3088h988l471 -798l471 798h987l-987 -1437l1142 -1651h-966l-647 1008l-709 -1008h-971l1209 1651z" />
    <glyph glyph-name="divide" unicode="&#xd6;" horiz-adv-x="3293" 
d="M2507 0h-2245v3088h803v-2457h1163v2457h803v-2457h238v-1139h-762v508z" />
    <glyph glyph-name="divide" unicode="&#x426;" horiz-adv-x="3293" 
d="M2507 0h-2245v3088h803v-2457h1163v2457h803v-2457h238v-1139h-762v508z" />
    <glyph glyph-name="lozenge" unicode="&#xd7;" horiz-adv-x="3084" 
d="M2019 1896v1192h803v-3088h-803v1266q-96 -58 -325.5 -146t-505.5 -88q-189 0 -364.5 64.5t-311.5 186t-213.5 289.5t-77.5 365v1151h803v-1028q0 -170 118.5 -259t307.5 -89q144 0 314 69t255 115z" />
    <glyph glyph-name="lozenge" unicode="&#x427;" horiz-adv-x="3084" 
d="M2019 1896v1192h803v-3088h-803v1266q-96 -58 -325.5 -146t-505.5 -88q-189 0 -364.5 64.5t-311.5 186t-213.5 289.5t-77.5 365v1151h803v-1028q0 -170 118.5 -259t307.5 -89q144 0 314 69t255 115z" />
    <glyph glyph-name="ydieresis" unicode="&#xd8;" horiz-adv-x="4096" 
d="M3031 631v2457h803v-3088h-3572v3088h803v-2457h582v2457h802v-2457h582z" />
    <glyph glyph-name="ydieresis" unicode="&#x428;" horiz-adv-x="4096" 
d="M3031 631v2457h803v-3088h-3572v3088h803v-2457h582v2457h802v-2457h582z" />
    <glyph glyph-name="Ydieresis" unicode="&#xd9;" horiz-adv-x="4096" 
d="M3310 0h-3048v3088h803v-2457h582v2457h802v-2457h582v2457h803v-2457h237v-1139h-761v508z" />
    <glyph glyph-name="Ydieresis" unicode="&#x429;" horiz-adv-x="4096" 
d="M3310 0h-3048v3088h803v-2457h582v2457h802v-2457h582v2457h803v-2457h237v-1139h-761v508z" />
    <glyph glyph-name="fraction" unicode="&#xda;" horiz-adv-x="2957" 
d="M508 2408h-483v680h1286v-1024h454q356 0 599 -111t369 -344t126 -593q0 -343 -139 -571t-391.5 -336.5t-591.5 -108.5h-1229v2408zM1311 647h135q202 0 315 20t187.5 105t74.5 268q0 175 -77 257t-192 101t-308 19h-135v-770z" />
    <glyph glyph-name="fraction" unicode="&#x42a;" horiz-adv-x="2957" 
d="M508 2408h-483v680h1286v-1024h454q356 0 599 -111t369 -344t126 -593q0 -343 -139 -571t-391.5 -336.5t-591.5 -108.5h-1229v2408zM1311 647h135q202 0 315 20t187.5 105t74.5 268q0 175 -77 257t-192 101t-308 19h-135v-770z" />
    <glyph glyph-name="currency" unicode="&#xdb;" horiz-adv-x="4014" 
d="M262 3088h803v-1024h455q354 0 597.5 -111t369.5 -344t126 -593q0 -343 -139 -571t-391.5 -336.5t-591.5 -108.5h-1229v3088zM3752 0h-803v3088h803v-3088zM1065 647h135q202 0 315.5 20t188 105t74.5 268q0 175 -77.5 257t-192.5 101t-308 19h-135v-770z" />
    <glyph glyph-name="currency" unicode="&#x42b;" horiz-adv-x="4014" 
d="M262 3088h803v-1024h455q354 0 597.5 -111t369.5 -344t126 -593q0 -343 -139 -571t-391.5 -336.5t-591.5 -108.5h-1229v3088zM3752 0h-803v3088h803v-3088zM1065 647h135q202 0 315.5 20t188 105t74.5 268q0 175 -77.5 257t-192.5 101t-308 19h-135v-770z" />
    <glyph glyph-name="guilsinglleft" unicode="&#xdc;" horiz-adv-x="2707" 
d="M262 3088h803v-1024h455q354 0 597.5 -111t369.5 -344t126 -593q0 -343 -139 -571t-391.5 -336.5t-591.5 -108.5h-1229v3088zM1065 647h135q202 0 315.5 20t188 105t74.5 268q0 175 -77.5 257t-192.5 101t-308 19h-135v-770z" />
    <glyph glyph-name="guilsinglleft" unicode="&#x42c;" horiz-adv-x="2707" 
d="M262 3088h803v-1024h455q354 0 597.5 -111t369.5 -344t126 -593q0 -343 -139 -571t-391.5 -336.5t-591.5 -108.5h-1229v3088zM1065 647h135q202 0 315.5 20t188 105t74.5 268q0 175 -77.5 257t-192.5 101t-308 19h-135v-770z" />
    <glyph glyph-name="guilsinglright" unicode="&#xdd;" horiz-adv-x="2703" 
d="M1692 1896q-93 227 -291.5 361.5t-462.5 134.5q-208 0 -396 -88.5t-309 -251.5v963q376 155 734 155q214 0 428 -59.5t404.5 -172t342.5 -267.5q146 -151 248.5 -333.5t154.5 -386.5t52 -411q0 -719 -496 -1167q-155 -142 -343.5 -245.5t-395.5 -156.5t-420 -53
q-163 0 -297.5 30t-411.5 113v963q127 -151 312.5 -239.5t380.5 -88.5q297 0 509 154.5t289 415.5h-1101v630h1069z" />
    <glyph glyph-name="guilsinglright" unicode="&#x42d;" horiz-adv-x="2703" 
d="M1692 1896q-93 227 -291.5 361.5t-462.5 134.5q-208 0 -396 -88.5t-309 -251.5v963q376 155 734 155q214 0 428 -59.5t404.5 -172t342.5 -267.5q146 -151 248.5 -333.5t154.5 -386.5t52 -411q0 -719 -496 -1167q-155 -142 -343.5 -245.5t-395.5 -156.5t-420 -53
q-163 0 -297.5 30t-411.5 113v963q127 -151 312.5 -239.5t380.5 -88.5q297 0 509 154.5t289 415.5h-1101v630h1069z" />
    <glyph glyph-name="fi" unicode="&#xde;" horiz-adv-x="4854" 
d="M1364 1266h-299v-1266h-803v3088h803v-1192h299q56 284 212.5 524.5t385.5 412.5t506.5 265t574.5 93q333 0 642 -116.5t549 -331t378.5 -507t138.5 -634.5q0 -367 -125.5 -682.5t-356.5 -545t-544.5 -353t-681.5 -123.5q-326 0 -609.5 97.5t-506.5 280.5t-367 435
t-196 555zM2171 1597q0 -261 117 -471.5t317 -330t438 -119.5q237 0 437.5 119t318 330t117.5 472q0 211 -118.5 399.5t-320 302.5t-434.5 114q-234 0 -435 -114t-319 -302.5t-118 -399.5z" />
    <glyph glyph-name="fi" unicode="&#x42e;" horiz-adv-x="4854" 
d="M1364 1266h-299v-1266h-803v3088h803v-1192h299q56 284 212.5 524.5t385.5 412.5t506.5 265t574.5 93q333 0 642 -116.5t549 -331t378.5 -507t138.5 -634.5q0 -367 -125.5 -682.5t-356.5 -545t-544.5 -353t-681.5 -123.5q-326 0 -609.5 97.5t-506.5 280.5t-367 435
t-196 555zM2171 1597q0 -261 117 -471.5t317 -330t438 -119.5q237 0 437.5 119t318 330t117.5 472q0 211 -118.5 399.5t-320 302.5t-434.5 114q-234 0 -435 -114t-319 -302.5t-118 -399.5z" />
    <glyph glyph-name="fl" unicode="&#xdf;" horiz-adv-x="2785" 
d="M926 1266q-214 38 -366.5 162t-231 309t-78.5 401q0 318 138 532t379.5 316t555.5 102h1200v-3088h-803v1188h-8l-758 -1188h-999zM1720 2474h-78q-157 0 -277.5 -29t-200 -114.5t-79.5 -241.5t79.5 -241.5t199.5 -114.5t278 -29h78v770z" />
    <glyph glyph-name="fl" unicode="&#x42f;" horiz-adv-x="2785" 
d="M926 1266q-214 38 -366.5 162t-231 309t-78.5 401q0 318 138 532t379.5 316t555.5 102h1200v-3088h-803v1188h-8l-758 -1188h-999zM1720 2474h-78q-157 0 -277.5 -29t-200 -114.5t-79.5 -241.5t79.5 -241.5t199.5 -114.5t278 -29h78v770z" />
    <glyph glyph-name="daggerdbl" unicode="&#xe0;" horiz-adv-x="2793" 
d="M2544 0h-746v233h-8q-93 -148 -267 -225.5t-368 -77.5q-303 0 -546 153.5t-379 411.5t-136 558q0 224 76 426.5t218 359t336.5 244.5t422.5 88q191 0 365 -71t286 -204v205h746v-2101zM864 1049q0 -205 129 -338t350 -133q222 0 351 133t129 338q0 131 -57.5 239
t-167 172t-255.5 64q-145 0 -254.5 -64t-167 -172t-57.5 -239z" />
    <glyph glyph-name="daggerdbl" unicode="&#x430;" horiz-adv-x="2793" 
d="M2544 0h-746v233h-8q-93 -148 -267 -225.5t-368 -77.5q-303 0 -546 153.5t-379 411.5t-136 558q0 224 76 426.5t218 359t336.5 244.5t422.5 88q191 0 365 -71t286 -204v205h746v-2101zM864 1049q0 -205 129 -338t350 -133q222 0 351 133t129 338q0 131 -57.5 239
t-167 172t-255.5 64q-145 0 -254.5 -64t-167 -172t-57.5 -239z" />
    <glyph glyph-name="periodcentered" unicode="&#xe1;" horiz-adv-x="2793" 
d="M1430 3203q399 59 532.5 152t142.5 143l467 -414q-78 -145 -148.5 -226t-281.5 -170t-598 -148q-255 -40 -424.5 -134t-248.5 -199t-85 -184q66 37 237 92.5t411 55.5q277 0 509.5 -79.5t403.5 -229t263.5 -360t92.5 -462.5q0 -258 -99 -464.5t-276.5 -351.5
t-405.5 -219.5t-484 -74.5t-484.5 73t-404.5 220.5t-276.5 369.5t-100.5 509q0 414 35.5 731t158 609t381.5 495t683 266zM958 1049q0 -205 129.5 -338t350.5 -133t350 133t129 338q0 131 -57.5 239t-167 172t-254.5 64t-255 -64t-167.5 -173t-57.5 -238z" />
    <glyph glyph-name="periodcentered" unicode="&#x431;" horiz-adv-x="2793" 
d="M1430 3203q399 59 532.5 152t142.5 143l467 -414q-78 -145 -148.5 -226t-281.5 -170t-598 -148q-255 -40 -424.5 -134t-248.5 -199t-85 -184q66 37 237 92.5t411 55.5q277 0 509.5 -79.5t403.5 -229t263.5 -360t92.5 -462.5q0 -258 -99 -464.5t-276.5 -351.5
t-405.5 -219.5t-484 -74.5t-484.5 73t-404.5 220.5t-276.5 369.5t-100.5 509q0 414 35.5 731t158 609t381.5 495t683 266zM958 1049q0 -205 129.5 -338t350.5 -133t350 133t129 338q0 131 -57.5 239t-167 172t-254.5 64t-255 -64t-167.5 -173t-57.5 -238z" />
    <glyph glyph-name="quotesinglbase" unicode="&#xe2;" horiz-adv-x="2433" 
d="M233 0v2101h1070q340 0 550.5 -140t210.5 -441q0 -225 -151 -365v-8q178 -60 273 -203t95 -330q0 -614 -909 -614h-1139zM1208 520q324 0 324 156q0 97 -82 128.5t-246 31.5h-229v-316h233zM975 1307h205q188 0 188 135q0 139 -188 139h-205v-274z" />
    <glyph glyph-name="quotesinglbase" unicode="&#x432;" horiz-adv-x="2433" 
d="M233 0v2101h1070q340 0 550.5 -140t210.5 -441q0 -225 -151 -365v-8q178 -60 273 -203t95 -330q0 -614 -909 -614h-1139zM1208 520q324 0 324 156q0 97 -82 128.5t-246 31.5h-229v-316h233zM975 1307h205q188 0 188 135q0 139 -188 139h-205v-274z" />
    <glyph glyph-name="quotedblbase" unicode="&#xe3;" horiz-adv-x="1761" 
d="M975 0h-742v2101h1471v-573h-729v-1528z" />
    <glyph glyph-name="quotedblbase" unicode="&#x433;" horiz-adv-x="1761" 
d="M975 0h-742v2101h1471v-573h-729v-1528z" />
    <glyph glyph-name="perthousand" unicode="&#xe4;" horiz-adv-x="2433" 
d="M328 2101h1872v-1560h180v-1049h-713v504h-975v-504h-712v1061l69 -12q112 0 172 120.5t83.5 379.5t23.5 704v287v69zM1425 1528h-417q-2 -318 -7 -483.5t-25 -291.5t-63 -212h512v987z" />
    <glyph glyph-name="perthousand" unicode="&#x434;" horiz-adv-x="2433" 
d="M328 2101h1872v-1560h180v-1049h-713v504h-975v-504h-712v1061l69 -12q112 0 172 120.5t83.5 379.5t23.5 704v287v69zM1425 1528h-417q-2 -318 -7 -483.5t-25 -291.5t-63 -212h512v987z" />
    <glyph glyph-name="Acircumflex" unicode="&#xe5;" horiz-adv-x="2499" 
d="M2404 926h-1568q0 -467 467 -467q243 0 356 192h717q-58 -237 -217 -400t-382.5 -242t-469.5 -79q-352 0 -628 130t-432.5 383t-156.5 606q0 341 146.5 596.5t412 390.5t604.5 135q272 0 486 -80.5t362.5 -233t225.5 -368.5t77 -485v-78zM1712 1356q-26 147 -147 239.5
t-275 92.5q-168 0 -288 -86t-154 -246h864z" />
    <glyph glyph-name="Acircumflex" unicode="&#x435;" horiz-adv-x="2499" 
d="M2404 926h-1568q0 -467 467 -467q243 0 356 192h717q-58 -237 -217 -400t-382.5 -242t-469.5 -79q-352 0 -628 130t-432.5 383t-156.5 606q0 341 146.5 596.5t412 390.5t604.5 135q272 0 486 -80.5t362.5 -233t225.5 -368.5t77 -485v-78zM1712 1356q-26 147 -147 239.5
t-275 92.5q-168 0 -288 -86t-154 -246h864z" />
    <glyph glyph-name="Ecircumflex" unicode="&#xe6;" horiz-adv-x="3949" 
d="M2351 2101v-758l569 758h979l-856 -971l926 -1130h-1024l-594 856v-856h-745v856l-594 -856h-1024l925 1130l-856 971h979l570 -758v758h745z" />
    <glyph glyph-name="Ecircumflex" unicode="&#x436;" horiz-adv-x="3949" 
d="M2351 2101v-758l569 758h979l-856 -971l926 -1130h-1024l-594 856v-856h-745v856l-594 -856h-1024l925 1130l-856 971h979l570 -758v758h745z" />
    <glyph glyph-name="Aacute" unicode="&#xe7;" horiz-adv-x="2109" 
d="M1950 680q0 -358 -267.5 -545.5t-699.5 -187.5q-445 0 -852 233l-61 37l340 533l57 -41q260 -189 496 -189q221 0 221 164q0 64 -55.5 108t-149.5 44h-266v475h254q139 0 139 135q0 59 -51 99t-137 40q-207 0 -381 -115l-70 -45l-315 521l69 36q99 50 230.5 90t265.5 61
t258 21q245 0 440.5 -70.5t309.5 -217t114 -363.5q0 -237 -209 -368q145 -75 231 -196t89 -259z" />
    <glyph glyph-name="Aacute" unicode="&#x437;" horiz-adv-x="2109" 
d="M1950 680q0 -358 -267.5 -545.5t-699.5 -187.5q-445 0 -852 233l-61 37l340 533l57 -41q260 -189 496 -189q221 0 221 164q0 64 -55.5 108t-149.5 44h-266v475h254q139 0 139 135q0 59 -51 99t-137 40q-207 0 -381 -115l-70 -45l-315 521l69 36q99 50 230.5 90t265.5 61
t258 21q245 0 440.5 -70.5t309.5 -217t114 -363.5q0 -237 -209 -368q145 -75 231 -196t89 -259z" />
    <glyph glyph-name="Edieresis" unicode="&#xe8;" horiz-adv-x="2904" 
d="M233 2101h746v-1061h8l942 1061h746v-2101h-746v1118h-8l-942 -1118h-746v2101z" />
    <glyph glyph-name="Edieresis" unicode="&#x438;" horiz-adv-x="2904" 
d="M233 2101h746v-1061h8l942 1061h746v-2101h-746v1118h-8l-942 -1118h-746v2101z" />
    <glyph glyph-name="Egrave" unicode="&#xe9;" horiz-adv-x="2904" 
d="M1118 2966q22 -130 112.5 -202.5t223.5 -72.5q136 0 227.5 72t112.5 203h455q-12 -219 -117 -376t-282 -237t-396 -80t-396 80t-282 237t-117 376h459zM233 2101h746v-1040h8l942 1040h746v-2101h-746v1098h-8l-942 -1098h-746v2101z" />
    <glyph glyph-name="Egrave" unicode="&#x439;" horiz-adv-x="2904" 
d="M1118 2966q22 -130 112.5 -202.5t223.5 -72.5q136 0 227.5 72t112.5 203h455q-12 -219 -117 -376t-282 -237t-396 -80t-396 80t-282 237t-117 376h459zM233 2101h746v-1040h8l942 1040h746v-2101h-746v1098h-8l-942 -1098h-746v2101z" />
    <glyph glyph-name="Iacute" unicode="&#xea;" horiz-adv-x="2818" 
d="M979 1343l774 758h1020l-1053 -971l1119 -1130h-1045l-815 856v-856h-746v2101h746v-758z" />
    <glyph glyph-name="Iacute" unicode="&#x43a;" horiz-adv-x="2818" 
d="M979 1343l774 758h1020l-1053 -971l1119 -1130h-1045l-815 856v-856h-746v2101h746v-758z" />
    <glyph glyph-name="Icircumflex" unicode="&#xeb;" horiz-adv-x="2433" 
d="M135 -53h-61l-82 577q144 0 203 29.5t88.5 158.5t37 394.5t7.5 925.5v69h1872v-2101h-742v1528h-422v-213q0 -386 -30.5 -629.5t-121.5 -408t-271.5 -247.5t-477.5 -83z" />
    <glyph glyph-name="Icircumflex" unicode="&#x43b;" horiz-adv-x="2433" 
d="M135 -53h-61l-82 577q144 0 203 29.5t88.5 158.5t37 394.5t7.5 925.5v69h1872v-2101h-742v1528h-422v-213q0 -386 -30.5 -629.5t-121.5 -408t-271.5 -247.5t-477.5 -83z" />
    <glyph glyph-name="Idieresis" unicode="&#xec;" horiz-adv-x="3236" 
d="M500 2101h700l426 -954l455 954h696l381 -2101h-750l-143 1008h-8l-475 -1008h-328l-450 1008h-9l-168 -1008h-749z" />
    <glyph glyph-name="Idieresis" unicode="&#x43c;" horiz-adv-x="3236" 
d="M500 2101h700l426 -954l455 954h696l381 -2101h-750l-143 1008h-8l-475 -1008h-328l-450 1008h-9l-168 -1008h-749z" />
    <glyph glyph-name="Igrave" unicode="&#xed;" horiz-adv-x="2683" 
d="M1708 2101h741v-2101h-741v782h-733v-782h-742v2101h742v-737h733v737z" />
    <glyph glyph-name="Igrave" unicode="&#x43d;" horiz-adv-x="2683" 
d="M1708 2101h741v-2101h-741v782h-733v-782h-742v2101h742v-737h733v737z" />
    <glyph glyph-name="Oacute" unicode="&#xee;" horiz-adv-x="2712" 
d="M2621 1049q0 -343 -171.5 -598t-462 -388t-631.5 -133q-342 0 -632 133t-462 386.5t-172 599.5q0 345 171.5 600t462.5 388.5t632 133.5t631.5 -133.5t462 -389t171.5 -599.5zM877 1049q0 -205 129 -338t350 -133t350 133t129 338q0 131 -57.5 239t-167 172t-254.5 64
t-254.5 -64t-167 -172t-57.5 -239z" />
    <glyph glyph-name="Oacute" unicode="&#x43e;" horiz-adv-x="2712" 
d="M2621 1049q0 -343 -171.5 -598t-462 -388t-631.5 -133q-342 0 -632 133t-462 386.5t-172 599.5q0 345 171.5 600t462.5 388.5t632 133.5t631.5 -133.5t462 -389t171.5 -599.5zM877 1049q0 -205 129 -338t350 -133t350 133t129 338q0 131 -57.5 239t-167 172t-254.5 64
t-254.5 -64t-167 -172t-57.5 -239z" />
    <glyph glyph-name="Ocircumflex" unicode="&#xef;" horiz-adv-x="2683" 
d="M2449 2101v-2101h-741v1520h-733v-1520h-742v2101h2216z" />
    <glyph glyph-name="Ocircumflex" unicode="&#x43f;" horiz-adv-x="2683" 
d="M2449 2101v-2101h-741v1520h-733v-1520h-742v2101h2216z" />
    <glyph glyph-name="apple" unicode="&#xf0;" horiz-adv-x="2793" 
d="M967 1864h8q97 150 268 228.5t367 78.5q228 0 425 -89.5t339.5 -246.5t219.5 -361t77 -430q0 -225 -76.5 -427.5t-218 -358t-336 -242t-422.5 -86.5q-187 0 -361 68.5t-290 202.5v-1250h-746v3150h746v-237zM942 1049q0 -205 129 -338t350 -133q222 0 351 133t129 338
q0 129 -57.5 238t-167.5 173t-255 64t-254.5 -64t-167 -172t-57.5 -239z" />
    <glyph glyph-name="apple" unicode="&#x440;" horiz-adv-x="2793" 
d="M967 1864h8q97 150 268 228.5t367 78.5q228 0 425 -89.5t339.5 -246.5t219.5 -361t77 -430q0 -225 -76.5 -427.5t-218 -358t-336 -242t-422.5 -86.5q-187 0 -361 68.5t-290 202.5v-1250h-746v3150h746v-237zM942 1049q0 -205 129 -338t350 -133q222 0 351 133t129 338
q0 129 -57.5 238t-167.5 173t-255 64t-254.5 -64t-167 -172t-57.5 -239z" />
    <glyph glyph-name="Ograve" unicode="&#xf1;" horiz-adv-x="1978" 
d="M1761 1417q-199 148 -385 148q-142 0 -259 -67.5t-185 -185t-68 -259.5q0 -227 147 -371.5t378 -144.5q216 0 372 143v-631q-238 -119 -524 -119q-307 0 -570 142t-418 393.5t-155 562.5q0 250 90 461.5t250.5 363.5t374.5 235t461 83q270 0 491 -123v-631z" />
    <glyph glyph-name="Ograve" unicode="&#x441;" horiz-adv-x="1978" 
d="M1761 1417q-199 148 -385 148q-142 0 -259 -67.5t-185 -185t-68 -259.5q0 -227 147 -371.5t378 -144.5q216 0 372 143v-631q-238 -119 -524 -119q-307 0 -570 142t-418 393.5t-155 562.5q0 250 90 461.5t250.5 363.5t374.5 235t461 83q270 0 491 -123v-631z" />
    <glyph glyph-name="Uacute" unicode="&#xf2;" horiz-adv-x="1851" 
d="M1294 0h-741v1528h-496v573h1737v-573h-500v-1528z" />
    <glyph glyph-name="Uacute" unicode="&#x442;" horiz-adv-x="1851" 
d="M1294 0h-741v1528h-496v573h1737v-573h-500v-1528z" />
    <glyph glyph-name="Ucircumflex" unicode="&#xf3;" horiz-adv-x="2679" 
d="M-61 2101h860l561 -1077l549 1077h848l-1684 -3150h-835l716 1336z" />
    <glyph glyph-name="Ucircumflex" unicode="&#x443;" horiz-adv-x="2679" 
d="M-61 2101h860l561 -1077l549 1077h848l-1684 -3150h-835l716 1336z" />
    <glyph glyph-name="Ugrave" unicode="&#xf4;" horiz-adv-x="4334" 
d="M2540 3088v-1224h8q97 150 268 228.5t367 78.5q228 0 425 -89.5t338.5 -245t219 -361.5t77.5 -431t-76.5 -427.5t-218 -358t-336 -242t-421.5 -86.5q-187 0 -361 68.5t-290 202.5v-1250h-746v1250q-116 -134 -290 -202.5t-361 -68.5q-227 0 -421 86.5t-337 243.5
t-219 358t-76 426q0 226 76.5 429.5t220 361t340 247t424.5 89.5q196 0 368 -79t267 -228h8v1224h746zM2515 1049q0 -205 129 -338t350 -133t350 133t129 338q0 131 -57.5 239t-167 172t-254.5 64t-254.5 -64t-167 -172t-57.5 -239zM1339 1524q-145 0 -254.5 -64t-167 -172
t-57.5 -239q0 -205 129 -338t350 -133q222 0 351 133t129 338q0 129 -57.5 238t-167.5 173t-255 64z" />
    <glyph glyph-name="Ugrave" unicode="&#x444;" horiz-adv-x="4334" 
d="M2540 3088v-1224h8q97 150 268 228.5t367 78.5q228 0 425 -89.5t338.5 -245t219 -361.5t77.5 -431t-76.5 -427.5t-218 -358t-336 -242t-421.5 -86.5q-187 0 -361 68.5t-290 202.5v-1250h-746v1250q-116 -134 -290 -202.5t-361 -68.5q-227 0 -421 86.5t-337 243.5
t-219 358t-76 426q0 226 76.5 429.5t220 361t340 247t424.5 89.5q196 0 368 -79t267 -228h8v1224h746zM2515 1049q0 -205 129 -338t350 -133t350 133t129 338q0 131 -57.5 239t-167 172t-254.5 64t-254.5 -64t-167 -172t-57.5 -239zM1339 1524q-145 0 -254.5 -64t-167 -172
t-57.5 -239q0 -205 129 -338t350 -133q222 0 351 133t129 338q0 129 -57.5 238t-167.5 173t-255 64z" />
    <glyph glyph-name="dotlessi" unicode="&#xf5;" horiz-adv-x="2916" 
d="M135 2101h946l377 -434l377 434h963l-869 -962l1049 -1139h-979l-541 623l-540 -623h-979l1048 1139z" />
    <glyph glyph-name="dotlessi" unicode="&#x445;" horiz-adv-x="2916" 
d="M135 2101h946l377 -434l377 434h963l-869 -962l1049 -1139h-979l-541 623l-540 -623h-979l1048 1139z" />
    <glyph glyph-name="circumflex" unicode="&#xf6;" horiz-adv-x="2683" 
d="M233 0v2101h742v-1519h733v1519h741v-1519h177v-1090h-709v508h-1684z" />
    <glyph glyph-name="circumflex" unicode="&#x446;" horiz-adv-x="2683" 
d="M233 0v2101h742v-1519h733v1519h741v-1519h177v-1090h-709v508h-1684z" />
    <glyph glyph-name="tilde" unicode="&#xf7;" horiz-adv-x="2519" 
d="M1544 2101h742v-2101h-742v750q-243 -119 -577 -119q-203 0 -381.5 87t-285.5 240t-107 340v803h741v-774q0 -77 67.5 -127t182.5 -53q211 0 360 156v798z" />
    <glyph glyph-name="tilde" unicode="&#x447;" horiz-adv-x="2519" 
d="M1544 2101h742v-2101h-742v750q-243 -119 -577 -119q-203 0 -381.5 87t-285.5 240t-107 340v803h741v-774q0 -77 67.5 -127t182.5 -53q211 0 360 156v798z" />
    <glyph glyph-name="macron" unicode="&#xf8;" horiz-adv-x="3535" 
d="M2560 2101h741v-2101h-3068v2101h742v-1519h422v1519h741v-1519h422v1519z" />
    <glyph glyph-name="macron" unicode="&#x448;" horiz-adv-x="3535" 
d="M2560 2101h741v-2101h-3068v2101h742v-1519h422v1519h741v-1519h422v1519z" />
    <glyph glyph-name="breve" unicode="&#xf9;" horiz-adv-x="3535" 
d="M233 0v2101h742v-1519h422v1519h741v-1519h422v1519h741v-1519h177v-1090h-709v508h-2536z" />
    <glyph glyph-name="breve" unicode="&#x449;" horiz-adv-x="3535" 
d="M233 0v2101h742v-1519h422v1519h741v-1519h422v1519h741v-1519h177v-1090h-709v508h-2536z" />
    <glyph glyph-name="dotaccent" unicode="&#xfa;" horiz-adv-x="2433" 
d="M57 1528v573h1102v-651h275q420 0 654 -185t234 -548q0 -358 -252.5 -537.5t-660.5 -179.5h-991v1528h-361zM1192 549q204 0 284 33.5t80 146.5q0 111 -82 141.5t-282 30.5h-33v-352h33z" />
    <glyph glyph-name="dotaccent" unicode="&#x44a;" horiz-adv-x="2433" 
d="M57 1528v573h1102v-651h275q420 0 654 -185t234 -548q0 -358 -252.5 -537.5t-660.5 -179.5h-991v1528h-361zM1192 549q204 0 284 33.5t80 146.5q0 111 -82 141.5t-282 30.5h-33v-352h33z" />
    <glyph glyph-name="ring" unicode="&#xfb;" horiz-adv-x="3289" 
d="M233 2101h742v-651h274q421 0 655 -185t234 -548q0 -358 -252.5 -537.5t-660.5 -179.5h-992v2101zM3056 0h-742v2101h742v-2101zM1008 549q217 3 290.5 31t73.5 149q0 115 -79.5 143.5t-284.5 28.5h-33v-352h33z" />
    <glyph glyph-name="ring" unicode="&#x44b;" horiz-adv-x="3289" 
d="M233 2101h742v-651h274q421 0 655 -185t234 -548q0 -358 -252.5 -537.5t-660.5 -179.5h-992v2101zM3056 0h-742v2101h742v-2101zM1008 549q217 3 290.5 31t73.5 149q0 115 -79.5 143.5t-284.5 28.5h-33v-352h33z" />
    <glyph glyph-name="cedilla" unicode="&#xfc;" horiz-adv-x="2245" 
d="M233 2101h742v-651h274q421 0 655 -185t234 -548q0 -358 -252.5 -537.5t-660.5 -179.5h-992v2101zM1008 549q143 0 215.5 10t110.5 48.5t38 121.5q0 115 -79.5 143.5t-284.5 28.5h-33v-352h33z" />
    <glyph glyph-name="cedilla" unicode="&#x44c;" horiz-adv-x="2245" 
d="M233 2101h742v-651h274q421 0 655 -185t234 -548q0 -358 -252.5 -537.5t-660.5 -179.5h-992v2101zM1008 549q143 0 215.5 10t110.5 48.5t38 121.5q0 115 -79.5 143.5t-284.5 28.5h-33v-352h33z" />
    <glyph glyph-name="hungarumlaut" unicode="&#xfd;" horiz-adv-x="1978" 
d="M1053 1307q-65 118 -184.5 188t-262.5 70q-185 0 -385 -148v631q222 123 492 123q247 0 461 -83t375 -235.5t250 -363.5t89 -461q0 -311 -155 -562.5t-418 -393.5t-570 -142q-286 0 -524 119v631q156 -143 373 -143q169 0 296 81t187 222h-643v467h619z" />
    <glyph glyph-name="hungarumlaut" unicode="&#x44d;" horiz-adv-x="1978" 
d="M1053 1307q-65 118 -184.5 188t-262.5 70q-185 0 -385 -148v631q222 123 492 123q247 0 461 -83t375 -235.5t250 -363.5t89 -461q0 -311 -155 -562.5t-418 -393.5t-570 -142q-286 0 -524 119v631q156 -143 373 -143q169 0 296 81t187 222h-643v467h619z" />
    <glyph glyph-name="ogonek" unicode="&#xfe;" horiz-adv-x="3813" 
d="M1311 750h-332v-750h-746v2101h746v-733h336q103 380 425.5 591.5t758.5 211.5q256 0 478.5 -74.5t390 -219.5t261.5 -355t94 -473q0 -261 -93 -469.5t-262 -354t-392.5 -220.5t-476.5 -75q-441 0 -766 216t-422 604zM2060 1049q0 -210 110.5 -340.5t328.5 -130.5
q217 0 327.5 130.5t110.5 340.5q0 207 -111 341t-327 134q-217 0 -328 -134t-111 -341z" />
    <glyph glyph-name="ogonek" unicode="&#x44e;" horiz-adv-x="3813" 
d="M1311 750h-332v-750h-746v2101h746v-733h336q103 380 425.5 591.5t758.5 211.5q256 0 478.5 -74.5t390 -219.5t261.5 -355t94 -473q0 -261 -93 -469.5t-262 -354t-392.5 -220.5t-476.5 -75q-441 0 -766 216t-422 604zM2060 1049q0 -210 110.5 -340.5t328.5 -130.5
q217 0 327.5 130.5t110.5 340.5q0 207 -111 341t-327 134q-217 0 -328 -134t-111 -341z" />
    <glyph glyph-name="caron" unicode="&#xff;" horiz-adv-x="2306" 
d="M225 1430q0 334 247.5 502.5t629.5 168.5h971v-2101h-742v795h-8l-463 -795h-942l631 831q-324 225 -324 599zM1331 1573h-78q-262 0 -262 -176q0 -102 59.5 -139t202.5 -37h78v352z" />
    <glyph glyph-name="caron" unicode="&#x44f;" horiz-adv-x="2306" 
d="M225 1430q0 334 247.5 502.5t629.5 168.5h971v-2101h-742v795h-8l-463 -795h-942l631 831q-324 225 -324 599zM1331 1573h-78q-262 0 -262 -176q0 -102 59.5 -139t202.5 -37h78v352z" />
  </font>
</defs>
</svg>
